<svg xmlns="http://www.w3.org/2000/svg" viewBox="0 0 500 500"><g id="freepik--background-simple--inject-108"><g><path d="M485.64,269.71c.08-1.08,.17-2.15,.31-3.22,1.5-11.49,8.48-97.87-100.02-206.5-116.62-116.76-244.06,14.38-266.07,48.66-22.01,34.28-28.43,86.92-45.42,52.28-10.5-21.41,16.88-48.23-21.91-37.03-24.88,7.19-71.1,70.78-33.22,180.04,37.89,109.26,144.3,192.61,246.58,186.53,131.51-7.82,208.95-103.2,202.8-110.29-6.15-7.09-55.13,14.06-44.37-.67,10.59-14.5,58.23-69.27,61.32-109.81Z" style="fill:#92E3A9;"></path><path d="M485.64,269.71c.08-1.08,.17-2.15,.31-3.22,1.5-11.49,8.48-97.87-100.02-206.5-116.62-116.76-244.06,14.38-266.07,48.66-22.01,34.28-28.43,86.92-45.42,52.28-10.5-21.41,16.88-48.23-21.91-37.03-24.88,7.19-71.1,70.78-33.22,180.04,37.89,109.26,144.3,192.61,246.58,186.53,131.51-7.82,208.95-103.2,202.8-110.29-6.15-7.09-55.13,14.06-44.37-.67,10.59-14.5,58.23-69.27,61.32-109.81Z" style="fill:#fff; opacity:.8;"></path></g></g><g id="freepik--Bowl--inject-108"><g><ellipse cx="240.69" cy="364.12" rx="130.38" ry="108.8" style="fill:#263238; stroke:#263238; stroke-linecap:round; stroke-linejoin:round;"></ellipse><ellipse cx="240.69" cy="348.72" rx="140.63" ry="108.8" style="fill:#fff; stroke:#263238; stroke-linecap:round; stroke-linejoin:round;"></ellipse><ellipse cx="240.69" cy="348.72" rx="137.31" ry="106.23" style="fill:#fff; stroke:#263238; stroke-linecap:round; stroke-linejoin:round;"></ellipse><ellipse cx="240.69" cy="373.75" rx="103.85" ry="80.34" style="fill:#fff; stroke:#263238; stroke-linecap:round; stroke-linejoin:round;"></ellipse></g></g><g id="freepik--Oranges--inject-108"><g><ellipse cx="263.21" cy="90.43" rx="31.59" ry="29.71" transform="translate(-14.47 109.15) rotate(-22.82)" style="fill:#92E3A9; stroke:#263238; stroke-linecap:round; stroke-linejoin:round;"></ellipse><ellipse cx="262.82" cy="87.5" rx="31.59" ry="29.71" transform="translate(-13.36 108.78) rotate(-22.82)" style="fill:#fff; stroke:#263238; stroke-linecap:round; stroke-linejoin:round;"></ellipse><g><path d="M266.19,82.21s10.13-16.28,9.54-18.46-11.17-5.43-13.24-3.35c-2.07,2.08,.45,20.45,1.18,21.49,.73,1.05,1.06,1.85,2.53,.32Z" style="fill:#92E3A9;"></path><path d="M262.39,81.25s-1.38-19.13-3.12-20.54c-1.74-1.41-11.83,2.66-12.28,5.56-.45,2.9,11.99,15.79,13.19,16.2,1.19,.42,1.93,.88,2.21-1.23Z" style="fill:#92E3A9;"></path><path d="M259.31,82.25s-12.34-14.68-14.71-14.69c-2.37,0-8.91,9.97-7.63,12.62s19.78,4.96,21.08,4.52c1.3-.44,2.22-.55,1.25-2.45Z" style="fill:#92E3A9;"></path><path d="M256.68,86.22s-18.62-4.59-20.49-3.43-1.24,11.58,1.39,12.88c2.62,1.3,18.85-6.09,19.6-7.05,.76-.96,1.41-1.49-.5-2.4Z" style="fill:#92E3A9;"></path><path d="M256.92,89.64s-17.77,7.22-18.55,9.36c-.78,2.14,5.14,10.32,8.05,9.87,2.91-.44,12.37-16.13,12.38-17.43s.21-2.16-1.88-1.8Z" style="fill:#92E3A9;"></path><path d="M259.52,92.83s-10.12,16.29-9.55,18.45,10.88,5.2,12.94,3.12c2.07-2.08-.17-20.23-.89-21.26-.72-1.04-1.04-1.84-2.5-.3Z" style="fill:#92E3A9;"></path><path d="M263.64,93.72s1.39,19.12,3.04,20.55c1.65,1.42,11.32-2.84,11.73-5.74s-11.57-15.6-12.69-16.02-1.82-.89-2.08,1.22Z" style="fill:#92E3A9;"></path><path d="M266.87,92.29s12.36,14.66,14.59,14.79c2.23,.12,8.93-8.68,7.59-11.28s-19.91-6.15-21.12-5.79c-1.21,.36-2.07,.42-1.06,2.29Z" style="fill:#92E3A9;"></path><path d="M268.92,88.93s18.62,4.59,20.49,3.4c1.88-1.2,1.74-12.33-.87-13.64s-19.35,6.8-20.11,7.79c-.76,.99-1.42,1.54,.49,2.45Z" style="fill:#92E3A9;"></path><path d="M268.61,85.1s17.76-7.23,18.57-9.3-5.88-10.76-8.78-10.28c-2.89,.47-11.6,16.63-11.64,17.88-.03,1.25-.25,2.09,1.84,1.71Z" style="fill:#92E3A9;"></path></g></g><g><ellipse cx="107.24" cy="179" rx="31.59" ry="29.71" transform="translate(-61.03 55.6) rotate(-22.82)" style="fill:#92E3A9; stroke:#263238; stroke-linecap:round; stroke-linejoin:round;"></ellipse><ellipse cx="106.85" cy="176.07" rx="31.59" ry="29.71" transform="translate(-59.92 55.22) rotate(-22.82)" style="fill:#fff; stroke:#263238; stroke-linecap:round; stroke-linejoin:round;"></ellipse><g><path d="M110.22,170.79s10.13-16.28,9.54-18.46-11.17-5.43-13.24-3.35c-2.07,2.08,.45,20.45,1.18,21.49,.73,1.05,1.06,1.85,2.53,.32Z" style="fill:#92E3A9;"></path><path d="M106.42,169.82s-1.38-19.13-3.12-20.54c-1.74-1.41-11.83,2.66-12.28,5.56-.45,2.9,11.99,15.79,13.19,16.2,1.19,.42,1.93,.88,2.21-1.23Z" style="fill:#92E3A9;"></path><path d="M103.34,170.83s-12.34-14.68-14.71-14.69c-2.37,0-8.91,9.97-7.63,12.62s19.78,4.96,21.08,4.52c1.3-.44,2.22-.55,1.25-2.45Z" style="fill:#92E3A9;"></path><path d="M100.72,174.79s-18.62-4.59-20.49-3.43c-1.87,1.16-1.24,11.58,1.39,12.88,2.62,1.3,18.85-6.09,19.6-7.05,.76-.96,1.41-1.49-.5-2.4Z" style="fill:#92E3A9;"></path><path d="M100.95,178.21s-17.77,7.22-18.55,9.36c-.78,2.14,5.14,10.32,8.05,9.87,2.91-.44,12.37-16.13,12.39-17.43,.01-1.3,.21-2.16-1.88-1.8Z" style="fill:#92E3A9;"></path><path d="M103.55,181.4s-10.12,16.29-9.55,18.45c.57,2.16,10.88,5.2,12.94,3.12s-.17-20.23-.89-21.26c-.72-1.04-1.04-1.84-2.5-.3Z" style="fill:#92E3A9;"></path><path d="M107.67,182.3s1.39,19.12,3.04,20.55,11.32-2.84,11.73-5.74c.41-2.9-11.57-15.6-12.69-16.02-1.13-.43-1.82-.89-2.08,1.22Z" style="fill:#92E3A9;"></path><path d="M110.9,180.86s12.36,14.66,14.59,14.79c2.23,.12,8.93-8.68,7.59-11.28-1.34-2.61-19.91-6.15-21.12-5.79s-2.07,.42-1.06,2.29Z" style="fill:#92E3A9;"></path><path d="M112.96,177.51s18.62,4.59,20.49,3.4c1.88-1.2,1.74-12.33-.87-13.64-2.62-1.31-19.35,6.8-20.11,7.79-.76,.99-1.42,1.54,.49,2.45Z" style="fill:#92E3A9;"></path><path d="M112.64,173.67s17.76-7.23,18.57-9.3-5.88-10.76-8.78-10.28-11.6,16.63-11.64,17.88c-.03,1.25-.25,2.09,1.84,1.71Z" style="fill:#92E3A9;"></path></g></g><g><ellipse cx="389.04" cy="224.9" rx="31.59" ry="29.71" transform="translate(-56.77 168.49) rotate(-22.82)" style="fill:#92E3A9; stroke:#263238; stroke-linecap:round; stroke-linejoin:round;"></ellipse><ellipse cx="388.65" cy="221.97" rx="31.59" ry="29.71" transform="translate(-55.67 168.11) rotate(-22.82)" style="fill:#fff; stroke:#263238; stroke-linecap:round; stroke-linejoin:round;"></ellipse><g><path d="M392.02,216.69s10.13-16.28,9.54-18.46-11.17-5.43-13.24-3.35c-2.07,2.08,.45,20.45,1.18,21.49,.73,1.05,1.06,1.85,2.53,.32Z" style="fill:#92E3A9;"></path><path d="M388.21,215.72s-1.38-19.13-3.12-20.54c-1.74-1.41-11.83,2.66-12.28,5.56-.45,2.9,11.99,15.79,13.19,16.21,1.19,.42,1.93,.88,2.21-1.23Z" style="fill:#92E3A9;"></path><path d="M385.14,216.72s-12.34-14.68-14.71-14.69c-2.37,0-8.91,9.97-7.63,12.62,1.28,2.66,19.78,4.96,21.08,4.52,1.3-.44,2.22-.55,1.25-2.45Z" style="fill:#92E3A9;"></path><path d="M382.51,220.69s-18.62-4.59-20.49-3.43c-1.87,1.16-1.24,11.58,1.39,12.88s18.85-6.09,19.6-7.05c.76-.96,1.41-1.49-.5-2.4Z" style="fill:#92E3A9;"></path><path d="M382.75,224.11s-17.77,7.22-18.55,9.36c-.78,2.14,5.14,10.32,8.05,9.87,2.91-.44,12.37-16.13,12.38-17.43,.01-1.3,.21-2.16-1.88-1.8Z" style="fill:#92E3A9;"></path><path d="M385.34,227.3s-10.12,16.29-9.55,18.45c.57,2.16,10.88,5.2,12.94,3.12s-.17-20.23-.89-21.26c-.72-1.04-1.04-1.84-2.5-.3Z" style="fill:#92E3A9;"></path><path d="M389.46,228.19s1.39,19.12,3.04,20.55c1.65,1.42,11.32-2.84,11.73-5.74s-11.57-15.6-12.69-16.02c-1.13-.43-1.82-.89-2.08,1.22Z" style="fill:#92E3A9;"></path><path d="M392.7,226.76s12.36,14.66,14.59,14.79c2.23,.12,8.93-8.68,7.59-11.28s-19.91-6.15-21.12-5.79c-1.21,.36-2.07,.42-1.06,2.29Z" style="fill:#92E3A9;"></path><path d="M394.75,223.4s18.62,4.59,20.49,3.4,1.74-12.33-.87-13.64-19.35,6.8-20.11,7.79-1.42,1.54,.49,2.45Z" style="fill:#92E3A9;"></path><path d="M394.44,219.57s17.76-7.23,18.57-9.3-5.88-10.76-8.78-10.28c-2.89,.47-11.6,16.63-11.64,17.88-.03,1.25-.25,2.09,1.84,1.71Z" style="fill:#92E3A9;"></path></g></g><g><ellipse cx="185.57" cy="208.51" rx="29.71" ry="31.59" style="fill:#92E3A9; stroke:#263238; stroke-linecap:round; stroke-linejoin:round;"></ellipse><ellipse cx="182.72" cy="207.73" rx="29.71" ry="31.59" style="fill:#fff; stroke:#263238; stroke-linecap:round; stroke-linejoin:round;"></ellipse><g><path d="M179.16,202.57s-11.08-15.65-13.31-15.95c-2.23-.3-9.34,8.19-8.23,10.91,1.11,2.72,19.02,7.52,20.27,7.25,1.25-.27,2.12-.26,1.27-2.21Z" style="fill:#92E3A9;"></path><path d="M176.79,205.71s-18.16-6.14-20.14-5.09-2.13,11.93,.36,13.47c2.5,1.54,19.2-4.93,20.05-5.87,.85-.94,1.56-1.44-.27-2.52Z" style="fill:#92E3A9;"></path><path d="M176.52,208.93s-18.31,5.68-19.24,7.86,5.73,12.08,8.68,11.93c2.95-.15,12.24-16.31,12.34-17.68,.1-1.37,.35-2.26-1.77-2.11Z" style="fill:#92E3A9;"></path><path d="M179.16,212.89s-11.45,15.38-11.11,17.55c.34,2.17,10.2,5.63,12.41,3.72,2.21-1.91,1.7-19.73,1.1-20.8-.59-1.07-.83-1.88-2.41-.47Z" style="fill:#92E3A9;"></path><path d="M182.4,214s-.24,19.17,1.43,20.73,11.51-.74,12.22-3.59c.72-2.85-10.07-17.66-11.27-18.18-1.19-.52-1.91-1.04-2.39,1.04Z" style="fill:#92E3A9;"></path><path d="M186.35,212.84s11.08,15.65,13.3,15.96c2.22,.31,9.01-8.01,7.89-10.72-1.12-2.71-18.71-7.69-19.94-7.43-1.24,.26-2.1,.24-1.25,2.19Z" style="fill:#92E3A9;"></path><path d="M188.77,209.39s18.17,6.13,20.12,5.17,1.77-11.54-.74-13.04-18.86,4.61-19.69,5.49c-.83,.87-1.52,1.33,.31,2.39Z" style="fill:#92E3A9;"></path><path d="M188.7,205.86s18.31-5.71,19.29-7.72-4.53-11.59-7.46-11.37-13.39,15.97-13.53,17.22c-.14,1.25-.42,2.07,1.7,1.87Z" style="fill:#92E3A9;"></path><path d="M186.41,202.66s11.45-15.38,11.08-17.57c-.38-2.19-10.68-6.39-12.91-4.48-2.23,1.9-1.23,20.47-.62,21.56s.86,1.91,2.45,.5Z" style="fill:#92E3A9;"></path><path d="M182.75,201.46s.23-19.17-1.37-20.73-12.2,1.25-12.88,4.1c-.69,2.85,10.83,17.15,11.97,17.66s1.83,1.04,2.29-1.04Z" style="fill:#92E3A9;"></path></g></g></g><g id="freepik--Leaves_2--inject-108"><g><path d="M90.63,231.55s5.81-13.33,6.49-19.13c.68-5.81-6.83,1.03-7.52,4.1-.68,3.08-6.15-4.78-6.83-1.37-.68,3.42,.68,6.15,1.37,8.54s-3.76,1.03-2.73,4.1c1.03,3.08,5.13,5.81,6.15,7.86s-.68,2.05-3.76,.68c-3.08-1.37-8.2-6.49-11.28-9.91-3.08-3.42-7.52-6.15-7.18-2.39,.34,3.76,2.73,7.18,2.73,7.18,0,0-1.71,0-3.76,4.78-2.05,4.78,3.08,3.42,3.08,3.42,0,0-2.05,5.13,0,5.81,2.05,.68,4.44-3.08,6.83-4.78,2.39-1.71,8.54-.68,10.25,0,1.71,.68,2.05,2.05-1.71,4.78-3.76,2.73-9.23,4.78-9.91,8.54-.68,3.76,3.76,1.71,3.76,1.71,0,0-3.76,4.78,1.03,6.83,4.78,2.05,7.86-2.73,7.86-2.73,0,0,3.76,6.15,4.78,2.05,1.02-4.1,.68-7.18,1.37-11.62,.68-4.44,1.37-8.88,2.39-9.23s11.62,1.03,14.35,2.73c2.73,1.71,4.78,2.73,4.78,2.73,0,0-.34-3.76-7.52-5.47s-13.83-3.27-13.83-3.27l-1.21-5.95Z" style="fill:#92E3A9; stroke:#263238; stroke-linecap:round; stroke-linejoin:round;"></path><path d="M94.05,240.77s-8.37-.47-15.08-3.55c-6.72-3.08-8.96-5.04-8.96-5.04" style="fill:#92E3A9; stroke:#263238; stroke-linecap:round; stroke-linejoin:round;"></path><path d="M90.72,240.86s-3.36,5.6-6.16,10.08" style="fill:#92E3A9; stroke:#263238; stroke-linecap:round; stroke-linejoin:round;"></path><path d="M90.44,237.78s-3.08-4.48-3.08-9.24,1.4-8.12,1.4-8.12" style="fill:#92E3A9; stroke:#263238; stroke-linecap:round; stroke-linejoin:round;"></path></g><g><path d="M160.38,174.54s9.12,11.32,13.95,14.62c4.83,3.3,2.26-6.53-.15-8.56-2.41-2.03,7.09-3.24,4.38-5.42s-5.77-2.24-8.2-2.74c-2.44-.5,.83-3.81-2.37-4.32-3.2-.52-7.52,1.85-9.81,1.81-2.29-.04-1.5-1.56,1.14-3.65,2.64-2.09,9.55-4.26,14-5.4,4.45-1.14,8.93-3.81,5.44-5.25-3.49-1.44-7.63-.9-7.63-.9,0,0,.79-1.51-2.5-5.55s-4.45,1.14-4.45,1.14c0,0-3.59-4.19-5.15-2.69-1.56,1.5,.67,5.36,1.07,8.27,.41,2.91-3.35,7.89-4.75,9.09-1.4,1.2-2.77,.87-3.45-3.73s.03-10.39-2.98-12.74c-3.01-2.35-3.26,2.54-3.26,2.54,0,0-2.5-5.55-6.53-2.26s-1.22,8.23-1.22,8.23c0,0-7.19,.48-4.03,3.29,3.16,2.81,6.04,3.93,9.66,6.59,3.62,2.66,7.24,5.33,7.07,6.39-.17,1.07-6.29,9.82-9.07,11.45-2.78,1.63-4.64,2.97-4.64,2.97,0,0,3.49,1.44,8.33-4.13s9.31-10.74,9.31-10.74l5.83,1.69Z" style="fill:#92E3A9; stroke:#263238; stroke-linecap:round; stroke-linejoin:round;"></path><path d="M150.62,173.3s4.3-7.19,10.13-11.72c5.84-4.53,8.61-5.6,8.61-5.6" style="fill:#92E3A9; stroke:#263238; stroke-linecap:round; stroke-linejoin:round;"></path><path d="M152.09,170.31s-3.41-5.57-6.08-10.12" style="fill:#92E3A9; stroke:#263238; stroke-linecap:round; stroke-linejoin:round;"></path><path d="M154.94,171.49s5.39-.65,9.61,1.55,6.55,5,6.55,5" style="fill:#92E3A9; stroke:#263238; stroke-linecap:round; stroke-linejoin:round;"></path></g><g><path d="M106.12,315.12s-8.89-4.48-12.84-5.17c-3.95-.69,.44,4.71,2.52,5.3,2.08,.59-3.51,4.02-1.2,4.62,2.31,.6,4.23-.23,5.9-.61,1.66-.38,.56,2.61,2.7,2.03s4.17-3.28,5.61-3.91,1.38,.55,.32,2.6c-1.05,2.05-4.76,5.36-7.21,7.34s-4.5,4.91-1.91,4.82c2.58-.09,5.01-1.6,5.01-1.6,0,0-.07,1.17,3.13,2.75,3.19,1.59,2.46-1.97,2.46-1.97,0,0,3.43,1.6,3.97,.22s-1.93-3.16-3.01-4.86c-1.08-1.7-.14-5.87,.39-7.01,.53-1.14,1.48-1.32,3.21,1.35,1.73,2.68,2.92,6.5,5.46,7.11,2.55,.61,1.31-2.51,1.31-2.51,0,0,3.13,2.75,4.71-.44,1.59-3.19-1.57-5.48-1.57-5.48,0,0,4.35-2.34,1.59-3.19-2.77-.86-4.88-.74-7.9-1.38-3.01-.64-6.03-1.28-6.22-1.99-.19-.71,1.15-7.91,2.42-9.71s2.05-3.17,2.05-3.17c0,0-2.58,.09-4.03,4.93-1.44,4.84-2.77,9.33-2.77,9.33l-4.12,.6Z" style="fill:#92E3A9; stroke:#263238; stroke-linecap:round; stroke-linejoin:round;"></path><path d="M112.57,313.14s-.65,5.71-3.01,10.18c-2.36,4.48-3.79,5.93-3.79,5.93" style="fill:#92E3A9; stroke:#263238; stroke-linecap:round; stroke-linejoin:round;"></path><path d="M112.5,315.42s3.7,2.51,6.66,4.6" style="fill:#92E3A9; stroke:#263238; stroke-linecap:round; stroke-linejoin:round;"></path><path d="M110.38,315.49s-3.18,1.93-6.44,1.75c-3.26-.18-5.5-1.27-5.5-1.27" style="fill:#92E3A9; stroke:#263238; stroke-linecap:round; stroke-linejoin:round;"></path></g><g><path d="M154.16,369.53s-8.89-4.48-12.84-5.17c-3.95-.69,.44,4.71,2.52,5.3,2.08,.59-3.51,4.02-1.2,4.62,2.31,.6,4.23-.23,5.9-.61s.56,2.61,2.7,2.03,4.17-3.28,5.61-3.91c1.44-.62,1.38,.55,.32,2.6s-4.76,5.36-7.21,7.34c-2.46,1.97-4.5,4.91-1.91,4.82,2.58-.09,5.01-1.6,5.01-1.6,0,0-.07,1.17,3.13,2.75,3.19,1.59,2.46-1.97,2.46-1.97,0,0,3.43,1.6,3.97,.22,.55-1.38-1.93-3.16-3.01-4.86s-.14-5.87,.39-7.01,1.48-1.32,3.21,1.35c1.73,2.68,2.92,6.5,5.46,7.11,2.55,.61,1.31-2.51,1.31-2.51,0,0,3.13,2.75,4.71-.44,1.59-3.19-1.57-5.48-1.57-5.48,0,0,4.35-2.34,1.59-3.19-2.77-.86-4.88-.74-7.9-1.38-3.01-.64-6.03-1.28-6.22-1.99-.19-.71,1.15-7.91,2.42-9.71,1.27-1.8,2.05-3.17,2.05-3.17,0,0-2.58,.09-4.03,4.93-1.44,4.84-2.77,9.33-2.77,9.33l-4.12,.6Z" style="fill:#92E3A9; stroke:#263238; stroke-linecap:round; stroke-linejoin:round;"></path><path d="M160.6,367.54s-.65,5.71-3.01,10.18c-2.36,4.48-3.79,5.93-3.79,5.93" style="fill:#92E3A9; stroke:#263238; stroke-linecap:round; stroke-linejoin:round;"></path><path d="M160.53,369.82s3.7,2.51,6.66,4.6" style="fill:#92E3A9; stroke:#263238; stroke-linecap:round; stroke-linejoin:round;"></path><path d="M158.41,369.9s-3.18,1.93-6.44,1.75c-3.26-.18-5.5-1.27-5.5-1.27" style="fill:#92E3A9; stroke:#263238; stroke-linecap:round; stroke-linejoin:round;"></path></g><g><path d="M152.1,324.58s6.29,7.72,9.61,9.97c3.32,2.24,1.52-4.48-.14-5.87-1.66-1.38,4.85-2.24,2.98-3.73-1.87-1.49-3.96-1.52-5.63-1.85-1.67-.34,.56-2.61-1.64-2.95-2.19-.34-5.15,1.3-6.72,1.28-1.57-.02-1.03-1.06,.76-2.5,1.8-1.44,6.53-2.95,9.58-3.75s6.11-2.65,3.71-3.62c-2.4-.97-5.23-.59-5.23-.59,0,0,.54-1.04-1.73-3.79-2.27-2.75-3.05,.8-3.05,.8,0,0-2.48-2.86-3.54-1.82-1.06,1.03,.48,3.67,.77,5.66,.29,1.99-2.27,5.42-3.22,6.24-.95,.83-1.89,.6-2.38-2.54s-.01-7.12-2.09-8.72c-2.07-1.6-2.22,1.75-2.22,1.75,0,0-1.73-3.79-4.48-1.52s-.8,5.64-.8,5.64c0,0-4.93,.36-2.75,2.27,2.18,1.91,4.16,2.67,6.65,4.48s4.98,3.62,4.87,4.36c-.11,.73-4.27,6.75-6.17,7.88-1.9,1.13-3.17,2.05-3.17,2.05,0,0,2.4,.97,5.69-2.86,3.29-3.83,6.34-7.39,6.34-7.39l4,1.13Z" style="fill:#92E3A9; stroke:#263238; stroke-linecap:round; stroke-linejoin:round;"></path><path d="M145.41,323.77s2.92-4.95,6.9-8.07c3.98-3.12,5.88-3.87,5.88-3.87" style="fill:#92E3A9; stroke:#263238; stroke-linecap:round; stroke-linejoin:round;"></path><path d="M146.4,321.71s-2.35-3.8-4.2-6.91" style="fill:#92E3A9; stroke:#263238; stroke-linecap:round; stroke-linejoin:round;"></path><path d="M148.37,322.51s3.69-.47,6.59,1.03c2.9,1.49,4.5,3.4,4.5,3.4" style="fill:#92E3A9; stroke:#263238; stroke-linecap:round; stroke-linejoin:round;"></path></g></g><g id="freepik--Leaves_1--inject-108"><g><path d="M267.75,210.35l-5.62,8.67s-14.99,5.15-18.74,12.42c-3.75,7.26-8.43,24.83-7.5,31.39,.94,6.56,6.33,10.78,10.07,10.07,3.75-.7,9.84-7.73,14.53-13.82,4.69-6.09,11.01-18.51,9.84-24.83s-4.22-7.73-4.22-11.95,6.09-17.1,1.64-11.95Z" style="fill:#92E3A9; stroke:#263238; stroke-linecap:round; stroke-linejoin:round;"></path><path d="M248.37,260.72c-3.56,6.19-3.34,7.5-3.34,7.5" style="fill:none; stroke:#263238; stroke-linecap:round; stroke-linejoin:round; stroke-width:.5px;"></path><path d="M266.98,215.55s-13.26,35.13-17.63,43.42" style="fill:none; stroke:#263238; stroke-linecap:round; stroke-linejoin:round; stroke-width:.5px;"></path><path d="M245.92,236.81c-2.49,2.55-3.65,3.98-3.65,3.98" style="fill:none; stroke:#263238; stroke-linecap:round; stroke-linejoin:round; stroke-width:.5px;"></path><path d="M261.41,223.24s-.91,3.53-2.05,5.01c-1.09,1.42-8.6,4.11-12.02,7.14" style="fill:none; stroke:#263238; stroke-linecap:round; stroke-linejoin:round; stroke-width:.5px;"></path><path d="M243.52,244.89s7.52-3.42,9.57-4.56,3.53-1.94,3.87-2.62c.34-.68,1.71-4.79,1.71-4.79" style="fill:none; stroke:#263238; stroke-linecap:round; stroke-linejoin:round; stroke-width:.5px;"></path><path d="M252.52,248.31s-6.95,2.28-10.48,3.53c-3.53,1.25-4.22,4.44-4.22,4.44" style="fill:none; stroke:#263238; stroke-linecap:round; stroke-linejoin:round; stroke-width:.5px;"></path><path d="M240.95,261.8c.46-.48,1.01-.97,1.66-1.41,2.51-1.71,6.38-3.76,6.38-3.76" style="fill:none; stroke:#263238; stroke-linecap:round; stroke-linejoin:round; stroke-width:.5px;"></path><path d="M239.07,264.49s.14-.33,.44-.83" style="fill:none; stroke:#263238; stroke-linecap:round; stroke-linejoin:round; stroke-width:.5px;"></path><path d="M262.22,242.4c.49,1.19,.86,2.43,.9,3.52,.11,3.53-1.03,7.41-1.03,7.41" style="fill:none; stroke:#263238; stroke-linecap:round; stroke-linejoin:round; stroke-width:.5px;"></path><path d="M259.35,237.26s1.03,1.44,2.01,3.32" style="fill:none; stroke:#263238; stroke-linecap:round; stroke-linejoin:round; stroke-width:.5px;"></path><path d="M257.28,254.65c.14,.77,.2,1.55,.13,2.32-.34,4.1-1.25,6.38-1.25,6.38" style="fill:none; stroke:#263238; stroke-linecap:round; stroke-linejoin:round; stroke-width:.5px;"></path><path d="M254.57,248.31s1.38,1.98,2.23,4.5" style="fill:none; stroke:#263238; stroke-linecap:round; stroke-linejoin:round; stroke-width:.5px;"></path><path d="M267.25,236.34c.23,.97,.35,1.98,.31,2.97" style="fill:none; stroke:#263238; stroke-linecap:round; stroke-linejoin:round; stroke-width:.5px;"></path><path d="M263.23,228.37s2.16,2.64,3.43,6.03" style="fill:none; stroke:#263238; stroke-linecap:round; stroke-linejoin:round; stroke-width:.5px;"></path></g><g><path d="M256.43,186.25l7.9,6.66s3.25,15.52,9.98,20.14c6.74,4.62,23.59,11.46,30.21,11.35s11.48-4.93,11.25-8.74c-.23-3.81-6.44-10.73-11.9-16.14-5.46-5.41-16.99-13.23-23.41-12.86-6.42,.37-8.2,3.22-12.38,2.7-4.18-.53-16.21-8.18-11.65-3.12Z" style="fill:#92E3A9; stroke:#263238; stroke-linecap:round; stroke-linejoin:round;"></path><path d="M304,211.76c5.7,4.3,7.02,4.25,7.02,4.25" style="fill:none; stroke:#263238; stroke-linecap:round; stroke-linejoin:round; stroke-width:.5px;"></path><path d="M261.5,187.66s33.2,17.53,40.89,22.9" style="fill:none; stroke:#263238; stroke-linecap:round; stroke-linejoin:round; stroke-width:.5px;"></path><path d="M279.97,211.21c2.22,2.79,3.5,4.12,3.5,4.12" style="fill:none; stroke:#263238; stroke-linecap:round; stroke-linejoin:round; stroke-width:.5px;"></path><path d="M268.44,194.15s3.39,1.34,4.72,2.66c1.28,1.26,3,9.05,5.59,12.82" style="fill:none; stroke:#263238; stroke-linecap:round; stroke-linejoin:round; stroke-width:.5px;"></path><path d="M287.69,214.6s-2.45-7.89-3.33-10.06-1.48-3.75-2.12-4.17c-.64-.42-4.54-2.29-4.54-2.29" style="fill:none; stroke:#263238; stroke-linecap:round; stroke-linejoin:round; stroke-width:.5px;"></path><path d="M292.2,206.09s1.39,7.18,2.2,10.84c.8,3.66,3.88,4.74,3.88,4.74" style="fill:none; stroke:#263238; stroke-linecap:round; stroke-linejoin:round; stroke-width:.5px;"></path><path d="M304.15,219.26c-.42-.52-.84-1.12-1.2-1.82-1.38-2.7-2.94-6.8-2.94-6.8" style="fill:none; stroke:#263238; stroke-linecap:round; stroke-linejoin:round; stroke-width:.5px;"></path><path d="M306.58,221.45s-.31-.18-.77-.54" style="fill:none; stroke:#263238; stroke-linecap:round; stroke-linejoin:round; stroke-width:.5px;"></path><path d="M287.55,195.73c1.25-.34,2.52-.55,3.6-.45,3.52,.33,7.22,1.94,7.22,1.94" style="fill:none; stroke:#263238; stroke-linecap:round; stroke-linejoin:round; stroke-width:.5px;"></path><path d="M282.09,197.93s1.56-.84,3.55-1.58" style="fill:none; stroke:#263238; stroke-linecap:round; stroke-linejoin:round; stroke-width:.5px;"></path><path d="M299.09,202.15c.78-.04,1.56,0,2.32,.15,4.03,.85,6.17,2.04,6.17,2.04" style="fill:none; stroke:#263238; stroke-linecap:round; stroke-linejoin:round; stroke-width:.5px;"></path><path d="M292.46,204.06s2.13-1.13,4.74-1.65" style="fill:none; stroke:#263238; stroke-linecap:round; stroke-linejoin:round; stroke-width:.5px;"></path><path d="M282.16,189.98c.99-.1,2-.1,2.99,.06" style="fill:none; stroke:#263238; stroke-linecap:round; stroke-linejoin:round; stroke-width:.5px;"></path><path d="M273.75,192.98s2.89-1.81,6.41-2.65" style="fill:none; stroke:#263238; stroke-linecap:round; stroke-linejoin:round; stroke-width:.5px;"></path></g><g><path d="M292.62,273.59l-5.75,8.58s-15.07,4.93-18.93,12.14c-3.86,7.21-8.8,24.71-7.96,31.28,.84,6.57,6.16,10.87,9.92,10.22,3.76-.65,9.95-7.58,14.73-13.61,4.78-6.02,11.29-18.34,10.21-24.69-1.08-6.34-4.1-7.79-4.04-12.01,.06-4.22,6.34-17.01,1.82-11.92Z" style="fill:#92E3A9; stroke:#263238; stroke-linecap:round; stroke-linejoin:round;"></path><path d="M272.49,323.67c-3.65,6.14-3.45,7.45-3.45,7.45" style="fill:none; stroke:#263238; stroke-linecap:round; stroke-linejoin:round; stroke-width:.5px;"></path><path d="M291.77,278.78s-13.78,34.93-18.27,43.16" style="fill:none; stroke:#263238; stroke-linecap:round; stroke-linejoin:round; stroke-width:.5px;"></path><path d="M270.4,299.72c-2.53,2.51-3.71,3.93-3.71,3.93" style="fill:none; stroke:#263238; stroke-linecap:round; stroke-linejoin:round; stroke-width:.5px;"></path><path d="M286.09,286.39s-.96,3.52-2.13,4.98c-1.12,1.41-8.66,3.98-12.12,6.96" style="fill:none; stroke:#263238; stroke-linecap:round; stroke-linejoin:round; stroke-width:.5px;"></path><path d="M267.88,307.77s7.57-3.31,9.64-4.41,3.56-1.88,3.91-2.56c.35-.68,1.78-4.76,1.78-4.76" style="fill:none; stroke:#263238; stroke-linecap:round; stroke-linejoin:round; stroke-width:.5px;"></path><path d="M276.83,311.32s-6.98,2.18-10.53,3.38-4.28,4.38-4.28,4.38" style="fill:none; stroke:#263238; stroke-linecap:round; stroke-linejoin:round; stroke-width:.5px;"></path><path d="M265.06,324.64c.47-.47,1.02-.96,1.68-1.39,2.53-1.67,6.44-3.66,6.44-3.66" style="fill:none; stroke:#263238; stroke-linecap:round; stroke-linejoin:round; stroke-width:.5px;"></path><path d="M263.14,327.3s.15-.33,.46-.82" style="fill:none; stroke:#263238; stroke-linecap:round; stroke-linejoin:round; stroke-width:.5px;"></path><path d="M286.61,305.56c.48,1.2,.83,2.44,.85,3.53,.06,3.53-1.14,7.39-1.14,7.39" style="fill:none; stroke:#263238; stroke-linecap:round; stroke-linejoin:round; stroke-width:.5px;"></path><path d="M283.83,300.37s1,1.46,1.96,3.35" style="fill:none; stroke:#263238; stroke-linecap:round; stroke-linejoin:round; stroke-width:.5px;"></path><path d="M281.5,317.74c.13,.77,.18,1.55,.1,2.32-.4,4.1-1.35,6.36-1.35,6.36" style="fill:none; stroke:#263238; stroke-linecap:round; stroke-linejoin:round; stroke-width:.5px;"></path><path d="M278.88,311.35s1.35,2,2.16,4.53" style="fill:none; stroke:#263238; stroke-linecap:round; stroke-linejoin:round; stroke-width:.5px;"></path><path d="M291.73,299.57c.21,.98,.32,1.98,.26,2.97" style="fill:none; stroke:#263238; stroke-linecap:round; stroke-linejoin:round; stroke-width:.5px;"></path><path d="M287.83,291.55s2.12,2.67,3.34,6.09" style="fill:none; stroke:#263238; stroke-linecap:round; stroke-linejoin:round; stroke-width:.5px;"></path></g><g><path d="M209.72,403.45l10.2-1.65s13.89,7.65,21.79,5.56c7.9-2.1,24.07-10.42,28.3-15.52s3.74-11.92,.7-14.23c-3.04-2.31-12.34-2.1-20-1.49s-21.11,4.26-25.01,9.38c-3.9,5.11-2.9,8.32-6.02,11.15-3.13,2.83-16.77,6.97-9.96,6.81Z" style="fill:#92E3A9; stroke:#263238; stroke-linecap:round; stroke-linejoin:round;"></path><path d="M260.06,384c6.98-1.52,7.8-2.56,7.8-2.56" style="fill:none; stroke:#263238; stroke-linecap:round; stroke-linejoin:round; stroke-width:.5px;"></path><path d="M214.09,400.53s34.93-13.76,44.02-16.09" style="fill:none; stroke:#263238; stroke-linecap:round; stroke-linejoin:round; stroke-width:.5px;"></path><path d="M243.99,401.86c3.56,.13,5.41,.03,5.41,.03" style="fill:none; stroke:#263238; stroke-linecap:round; stroke-linejoin:round; stroke-width:.5px;"></path><path d="M223.54,399.49s3.23-1.7,5.09-1.85c1.79-.14,8.82,3.62,13.36,4.11" style="fill:none; stroke:#263238; stroke-linecap:round; stroke-linejoin:round; stroke-width:.5px;"></path><path d="M251.59,398.21s-7.58-3.28-9.8-4.03c-2.22-.76-3.81-1.32-4.54-1.11-.74,.21-4.69,1.95-4.69,1.95" style="fill:none; stroke:#263238; stroke-linecap:round; stroke-linejoin:round; stroke-width:.5px;"></path><path d="M248.08,389.25s6.35,3.62,9.65,5.4c3.3,1.78,6.12,.14,6.12,.14" style="fill:none; stroke:#263238; stroke-linecap:round; stroke-linejoin:round; stroke-width:.5px;"></path><path d="M265.85,388.77c-.66-.02-1.4-.1-2.16-.28-2.95-.71-7.07-2.2-7.07-2.2" style="fill:none; stroke:#263238; stroke-linecap:round; stroke-linejoin:round; stroke-width:.5px;"></path><path d="M269.1,388.35s-.34,.12-.91,.23" style="fill:none; stroke:#263238; stroke-linecap:round; stroke-linejoin:round; stroke-width:.5px;"></path><path d="M237.19,386.03c.55-1.17,1.22-2.27,2-3.03,2.54-2.46,6.18-4.21,6.18-4.21" style="fill:none; stroke:#263238; stroke-linecap:round; stroke-linejoin:round; stroke-width:.5px;"></path><path d="M235.3,391.6s.38-1.73,1.12-3.72" style="fill:none; stroke:#263238; stroke-linecap:round; stroke-linejoin:round; stroke-width:.5px;"></path><path d="M249.58,381.46c.47-.62,1.01-1.19,1.63-1.65,3.27-2.5,5.57-3.35,5.57-3.35" style="fill:none; stroke:#263238; stroke-linecap:round; stroke-linejoin:round; stroke-width:.5px;"></path><path d="M246.7,387.73s.54-2.35,1.84-4.67" style="fill:none; stroke:#263238; stroke-linecap:round; stroke-linejoin:round; stroke-width:.5px;"></path><path d="M229.32,386.37c.57-.82,1.23-1.59,1.99-2.22" style="fill:none; stroke:#263238; stroke-linecap:round; stroke-linejoin:round; stroke-width:.5px;"></path><path d="M226.11,394.7s.51-3.37,2.17-6.59" style="fill:none; stroke:#263238; stroke-linecap:round; stroke-linejoin:round; stroke-width:.5px;"></path></g><g><path d="M236.99,321.25l6.57,7.98s.38,15.85,6.18,21.62c5.79,5.77,21.13,15.54,27.66,16.63,6.54,1.09,12.18-2.78,12.65-6.56,.46-3.79-4.4-11.72-8.79-18.02-4.39-6.31-14.32-16.09-20.7-16.88-6.38-.79-8.64,1.68-12.66,.41-4.02-1.27-14.46-10.97-10.9-5.17Z" style="fill:#92E3A9; stroke:#263238; stroke-linecap:round; stroke-linejoin:round;"></path><path d="M279.15,354.95c4.83,5.26,6.14,5.45,6.14,5.45" style="fill:none; stroke:#263238; stroke-linecap:round; stroke-linejoin:round; stroke-width:.5px;"></path><path d="M241.71,323.56s29.48,23.25,36.07,29.92" style="fill:none; stroke:#263238; stroke-linecap:round; stroke-linejoin:round; stroke-width:.5px;"></path><path d="M255.62,350.06c1.68,3.14,2.69,4.69,2.69,4.69" style="fill:none; stroke:#263238; stroke-linecap:round; stroke-linejoin:round; stroke-width:.5px;"></path><path d="M247.37,331.2s3.09,1.94,4.16,3.47c1.03,1.47,1.32,9.44,3.18,13.62" style="fill:none; stroke:#263238; stroke-linecap:round; stroke-linejoin:round; stroke-width:.5px;"></path><path d="M262.6,354.79s-.99-8.2-1.45-10.5c-.47-2.3-.78-3.95-1.33-4.48-.55-.53-4.05-3.07-4.05-3.07" style="fill:none; stroke:#263238; stroke-linecap:round; stroke-linejoin:round; stroke-width:.5px;"></path><path d="M268.58,347.24s.07,7.31,.2,11.06c.13,3.75,2.96,5.36,2.96,5.36" style="fill:none; stroke:#263238; stroke-linecap:round; stroke-linejoin:round; stroke-width:.5px;"></path><path d="M277.94,362.35c-.32-.58-.62-1.26-.85-2.01-.87-2.91-1.66-7.22-1.66-7.22" style="fill:none; stroke:#263238; stroke-linecap:round; stroke-linejoin:round; stroke-width:.5px;"></path><path d="M279.94,364.94s-.27-.23-.65-.67" style="fill:none; stroke:#263238; stroke-linecap:round; stroke-linejoin:round; stroke-width:.5px;"></path><path d="M265.87,336.21c1.29-.11,2.58-.09,3.62,.21,3.4,.96,6.75,3.21,6.75,3.21" style="fill:none; stroke:#263238; stroke-linecap:round; stroke-linejoin:round; stroke-width:.5px;"></path><path d="M260.11,337.38s1.68-.54,3.77-.91" style="fill:none; stroke:#263238; stroke-linecap:round; stroke-linejoin:round; stroke-width:.5px;"></path><path d="M276.06,344.61c.77,.1,1.54,.28,2.25,.57,3.81,1.56,5.7,3.12,5.7,3.12" style="fill:none; stroke:#263238; stroke-linecap:round; stroke-linejoin:round; stroke-width:.5px;"></path><path d="M269.2,345.28s2.3-.72,4.96-.77" style="fill:none; stroke:#263238; stroke-linecap:round; stroke-linejoin:round; stroke-width:.5px;"></path><path d="M261.61,329.58c1,.08,1.99,.26,2.92,.6" style="fill:none; stroke:#263238; stroke-linecap:round; stroke-linejoin:round; stroke-width:.5px;"></path><path d="M252.8,331.01s3.17-1.26,6.79-1.45" style="fill:none; stroke:#263238; stroke-linecap:round; stroke-linejoin:round; stroke-width:.5px;"></path></g><g><path d="M188.67,330.09l-2.55-10.01s6.39-14.51,3.59-22.19c-2.79-7.68-12.52-23.05-17.98-26.81s-12.21-2.66-14.24,.57c-2.03,3.23-1,12.47,.3,20.05,1.3,7.58,6.13,20.65,11.57,24.08s8.54,2.15,11.64,5.01,8.43,16.08,7.66,9.31Z" style="fill:#92E3A9; stroke:#263238; stroke-linecap:round; stroke-linejoin:round;"></path><path d="M164.82,281.67c-2.13-6.81-3.24-7.54-3.24-7.54" style="fill:none; stroke:#263238; stroke-linecap:round; stroke-linejoin:round; stroke-width:.5px;"></path><path d="M185.38,325.99s-16.81-33.57-19.94-42.41" style="fill:none; stroke:#263238; stroke-linecap:round; stroke-linejoin:round; stroke-width:.5px;"></path><path d="M184.05,296.1c-.18-3.56-.45-5.39-.45-5.39" style="fill:none; stroke:#263238; stroke-linecap:round; stroke-linejoin:round; stroke-width:.5px;"></path><path d="M183.5,316.68s-1.98-3.07-2.29-4.91c-.3-1.77,2.82-9.11,2.91-13.68" style="fill:none; stroke:#263238; stroke-linecap:round; stroke-linejoin:round; stroke-width:.5px;"></path><path d="M179.74,288.85s-2.59,7.84-3.15,10.12c-.55,2.28-.97,3.91-.7,4.62,.27,.72,2.36,4.5,2.36,4.5" style="fill:none; stroke:#263238; stroke-linecap:round; stroke-linejoin:round; stroke-width:.5px;"></path><path d="M171.12,293.14s3.04-6.65,4.52-10.1-.4-6.11-.4-6.11" style="fill:none; stroke:#263238; stroke-linecap:round; stroke-linejoin:round; stroke-width:.5px;"></path><path d="M169.06,275.49c.04,.66,.03,1.4-.09,2.18-.45,3-1.57,7.24-1.57,7.24" style="fill:none; stroke:#263238; stroke-linecap:round; stroke-linejoin:round; stroke-width:.5px;"></path><path d="M168.36,272.29s.15,.33,.31,.89" style="fill:none; stroke:#263238; stroke-linecap:round; stroke-linejoin:round; stroke-width:.5px;"></path><path d="M168.88,304.28c-1.21-.45-2.37-1.01-3.19-1.73-2.67-2.31-4.74-5.78-4.74-5.78" style="fill:none; stroke:#263238; stroke-linecap:round; stroke-linejoin:round; stroke-width:.5px;"></path><path d="M174.6,305.66s-1.75-.23-3.8-.78" style="fill:none; stroke:#263238; stroke-linecap:round; stroke-linejoin:round; stroke-width:.5px;"></path><path d="M163.23,292.34c-.66-.42-1.27-.91-1.79-1.47-2.78-3.03-3.84-5.25-3.84-5.25" style="fill:none; stroke:#263238; stroke-linecap:round; stroke-linejoin:round; stroke-width:.5px;"></path><path d="M169.73,294.65s-2.39-.32-4.82-1.41" style="fill:none; stroke:#263238; stroke-linecap:round; stroke-linejoin:round; stroke-width:.5px;"></path><path d="M169.92,312.09c-.87-.49-1.69-1.08-2.39-1.79" style="fill:none; stroke:#263238; stroke-linecap:round; stroke-linejoin:round; stroke-width:.5px;"></path><path d="M178.5,314.54s-3.4-.21-6.76-1.58" style="fill:none; stroke:#263238; stroke-linecap:round; stroke-linejoin:round; stroke-width:.5px;"></path></g><g><path d="M185.74,213.11l6.57,7.98s.38,15.85,6.18,21.62c5.79,5.77,21.13,15.54,27.66,16.63,6.54,1.09,12.18-2.78,12.65-6.56,.46-3.79-4.4-11.72-8.79-18.02-4.39-6.31-14.32-16.09-20.7-16.88-6.38-.79-8.64,1.68-12.66,.41-4.02-1.27-14.46-10.97-10.9-5.17Z" style="fill:#92E3A9; stroke:#263238; stroke-linecap:round; stroke-linejoin:round;"></path><path d="M227.9,246.81c4.83,5.26,6.14,5.45,6.14,5.45" style="fill:none; stroke:#263238; stroke-linecap:round; stroke-linejoin:round; stroke-width:.5px;"></path><path d="M190.46,215.42s29.48,23.25,36.07,29.92" style="fill:none; stroke:#263238; stroke-linecap:round; stroke-linejoin:round; stroke-width:.5px;"></path><path d="M204.37,241.92c1.68,3.14,2.69,4.69,2.69,4.69" style="fill:none; stroke:#263238; stroke-linecap:round; stroke-linejoin:round; stroke-width:.5px;"></path><path d="M196.12,223.06s3.09,1.94,4.16,3.47c1.03,1.47,1.32,9.44,3.18,13.62" style="fill:none; stroke:#263238; stroke-linecap:round; stroke-linejoin:round; stroke-width:.5px;"></path><path d="M211.35,246.65s-.99-8.2-1.45-10.5c-.47-2.3-.78-3.95-1.33-4.48-.55-.53-4.05-3.07-4.05-3.07" style="fill:none; stroke:#263238; stroke-linecap:round; stroke-linejoin:round; stroke-width:.5px;"></path><path d="M217.33,239.1s.07,7.31,.2,11.06c.13,3.75,2.96,5.36,2.96,5.36" style="fill:none; stroke:#263238; stroke-linecap:round; stroke-linejoin:round; stroke-width:.5px;"></path><path d="M226.7,254.21c-.32-.58-.62-1.26-.85-2.01-.87-2.91-1.66-7.22-1.66-7.22" style="fill:none; stroke:#263238; stroke-linecap:round; stroke-linejoin:round; stroke-width:.5px;"></path><path d="M228.69,256.81s-.27-.23-.65-.67" style="fill:none; stroke:#263238; stroke-linecap:round; stroke-linejoin:round; stroke-width:.5px;"></path><path d="M214.62,228.07c1.29-.11,2.58-.09,3.62,.21,3.4,.96,6.75,3.21,6.75,3.21" style="fill:none; stroke:#263238; stroke-linecap:round; stroke-linejoin:round; stroke-width:.5px;"></path><path d="M208.86,229.25s1.68-.54,3.77-.91" style="fill:none; stroke:#263238; stroke-linecap:round; stroke-linejoin:round; stroke-width:.5px;"></path><path d="M224.82,236.48c.77,.1,1.54,.28,2.25,.57,3.81,1.56,5.7,3.12,5.7,3.12" style="fill:none; stroke:#263238; stroke-linecap:round; stroke-linejoin:round; stroke-width:.5px;"></path><path d="M217.95,237.15s2.3-.72,4.96-.77" style="fill:none; stroke:#263238; stroke-linecap:round; stroke-linejoin:round; stroke-width:.5px;"></path><path d="M210.37,221.44c1,.08,1.99,.26,2.92,.6" style="fill:none; stroke:#263238; stroke-linecap:round; stroke-linejoin:round; stroke-width:.5px;"></path><path d="M201.56,222.87s3.17-1.26,6.79-1.45" style="fill:none; stroke:#263238; stroke-linecap:round; stroke-linejoin:round; stroke-width:.5px;"></path></g></g><g id="freepik--Eggs--inject-108"><g><path d="M266.24,199.1c1.5-9.71-.17-19.95-6.18-26.06-21.18-21.51-61.1,20.3-41.03,42.15,17.13,18.64,43.5,7.89,47.21-16.09Z" style="fill:#fff; stroke:#263238; stroke-linecap:round; stroke-linejoin:round;"></path><ellipse cx="236.61" cy="204.7" rx="14.11" ry="15.23" transform="translate(-75.14 178.3) rotate(-36.02)" style="fill:#92E3A9; stroke:#263238; stroke-linecap:round; stroke-linejoin:round;"></ellipse></g><g><path d="M235.83,250.28c-6.97-6.92-16.24-11.6-24.71-10.33-29.85,4.48-19.52,61.36,9.96,57.97,25.15-2.89,31.96-30.55,14.75-47.65Z" style="fill:#fff; stroke:#263238; stroke-linecap:round; stroke-linejoin:round;"></path><ellipse cx="222.94" cy="277.54" rx="15.23" ry="14.11" style="fill:#92E3A9; stroke:#263238; stroke-linecap:round; stroke-linejoin:round;"></ellipse></g></g><g id="freepik--Tomatoes--inject-108"><g><path d="M212.99,301.03s-7.57,2.16-8.87,9.74c-1.3,7.57,.43,12.55,.43,12.55,0,0-2.16,5.19,.22,10.82,2.38,5.63,8.01,8.87,8.01,8.87,0,0,8.87,8.44,17.31,7.57,8.44-.87,10.17-7.36,10.17-7.36,0,0,11.04-4.11,12.12-9.09,1.08-4.98,1.08-8.87,1.08-8.87,0,0,2.81-8.22,.22-12.98-2.6-4.76-4.11-6.71-4.11-6.71,0,0-1.95-6.49-6.06-9.31s-9.52-3.68-9.52-3.68c0,0-6.93-2.16-10.39-.22-3.46,1.95-5.63,2.6-5.63,2.6,0,0-3.03,2.16-4.98,6.06Z" style="fill:#fff; stroke:#263238; stroke-linecap:round; stroke-linejoin:round;"></path><path d="M218.35,305.28c2.22,1.49,5.03,4.08,7.41,8.52" style="fill:none; stroke:#263238; stroke-linecap:round; stroke-linejoin:round;"></path><path d="M214.51,303.41s.41,.09,1.09,.38" style="fill:none; stroke:#263238; stroke-linecap:round; stroke-linejoin:round;"></path><path d="M235.89,300.98c2.23,3.23,4.12,7.36,3.94,11.96" style="fill:none; stroke:#263238; stroke-linecap:round; stroke-linejoin:round;"></path><path d="M229.22,293.89s2.49,1.85,5.05,4.95" style="fill:none; stroke:#263238; stroke-linecap:round; stroke-linejoin:round;"></path><path d="M242.21,298.87s2.38,2.81,1.08,11.04" style="fill:none; stroke:#263238; stroke-linecap:round; stroke-linejoin:round;"></path><path d="M249.73,314.83c-1.03,1.41-2.54,3.08-4.49,4.17" style="fill:none; stroke:#263238; stroke-linecap:round; stroke-linejoin:round;"></path><path d="M251.3,312.29s-.24,.51-.71,1.26" style="fill:none; stroke:#263238; stroke-linecap:round; stroke-linejoin:round;"></path><path d="M220.49,335.08c2.06-.43,3.32-1.15,3.32-1.15" style="fill:none; stroke:#263238; stroke-linecap:round; stroke-linejoin:round;"></path><path d="M206.07,327.65s1.51,5.41,7.36,7.14c1.31,.39,2.55,.56,3.69,.59" style="fill:none; stroke:#263238; stroke-linecap:round; stroke-linejoin:round;"></path><path d="M247.83,327.22s4.76,.65,5.63-1.95" style="fill:none; stroke:#263238; stroke-linecap:round; stroke-linejoin:round;"></path><polygon points="240.48 317.26 238.74 319 235.07 318.13 233.55 321.81 229.22 321.81 229.01 323.32 226.41 325.27 229.22 326.35 225.76 330.9 227.92 331.33 225.98 335.23 227.71 334.79 228.79 338.47 230.74 336.52 231.39 340.42 235.28 338.04 236.36 339.55 238.74 337.82 239.18 341.29 240.48 336.09 243.07 336.52 242.86 334.14 244.8 333.28 244.37 330.68 246.32 329.6 244.59 327.87 246.54 323.97 246.32 321.59 243.94 321.16 247.4 319.21 242.64 318.13 242.42 316.4 240.48 317.26" style="fill:#92E3A9; stroke:#263238; stroke-linecap:round; stroke-linejoin:round;"></polygon></g><g><path d="M220.8,248.05c0-.95,.77-1.95,.64-2.86-.13-.94-1.16-1.68-1.42-2.57-.27-.91,.19-2.08-.19-2.93-.39-.86-1.58-1.28-2.09-2.06-.51-.79-.4-2.05-1.01-2.75-.61-.71-1.87-.78-2.58-1.39-.71-.61-.95-1.85-1.74-2.36-.78-.51-2.01-.22-2.87-.61-.85-.39-1.43-1.51-2.34-1.77-.89-.26-1.99,.36-2.92,.23-.92-.13-1.79-1.04-2.74-1.04s-1.83,.91-2.74,1.04c-.94,.13-2.03-.49-2.92-.23-.91,.27-1.49,1.38-2.34,1.77-.86,.39-2.08,.1-2.87,.61-.79,.51-1.04,1.75-1.74,2.36-.71,.61-1.97,.68-2.58,1.39-.61,.71-.5,1.96-1.01,2.75-.51,.78-1.7,1.2-2.09,2.06-.39,.85,.07,2.02-.19,2.93-.26,.89-1.28,1.63-1.42,2.57-.13,.92,.64,1.91,.64,2.86s-.77,1.95-.64,2.86c.13,.94,1.16,1.68,1.42,2.57,.27,.91-.19,2.08,.19,2.93,.39,.86,1.58,1.28,2.09,2.06,.51,.79,.4,2.05,1.01,2.75,.61,.71,1.87,.78,2.58,1.39,.71,.61,.95,1.85,1.74,2.36,.78,.51,2.01,.22,2.87,.61,.85,.39,1.43,1.51,2.34,1.77,.89,.26,1.99-.36,2.92-.23,.92,.13,1.79,1.04,2.74,1.04s1.83-.91,2.74-1.04c.94-.13,2.03,.49,2.92,.23,.91-.27,1.49-1.38,2.34-1.77,.86-.39,2.08-.1,2.87-.61,.79-.51,1.04-1.75,1.74-2.36,.71-.61,1.97-.68,2.58-1.39,.61-.71,.5-1.96,1.01-2.75,.51-.79,1.7-1.2,2.09-2.06,.39-.85-.07-2.02,.19-2.93,.26-.89,1.28-1.63,1.42-2.57,.13-.92-.64-1.91-.64-2.86Z" style="fill:#92E3A9; stroke:#263238; stroke-linecap:round; stroke-linejoin:round;"></path><path d="M218.93,248.05c0-.86,.7-1.76,.58-2.58-.12-.85-1.04-1.51-1.28-2.32-.24-.82,.18-1.88-.17-2.64-.35-.77-1.43-1.15-1.88-1.86-.46-.71-.36-1.85-.91-2.49-.55-.64-1.69-.7-2.33-1.26-.64-.55-.86-1.67-1.57-2.13-.71-.46-1.82-.2-2.59-.55-.76-.35-1.29-1.36-2.11-1.6-.8-.24-1.79,.33-2.64,.21-.83-.12-1.62-.94-2.48-.94s-1.65,.82-2.48,.94c-.85,.12-1.84-.44-2.64-.21-.82,.24-1.35,1.25-2.11,1.6-.77,.35-1.88,.09-2.59,.55-.71,.46-.93,1.58-1.57,2.13-.64,.55-1.78,.62-2.33,1.26-.55,.64-.45,1.77-.91,2.49-.46,.71-1.53,1.09-1.88,1.86-.35,.76,.07,1.82-.17,2.64-.24,.8-1.16,1.47-1.28,2.32-.12,.83,.58,1.72,.58,2.58s-.7,1.76-.58,2.58c.12,.85,1.04,1.51,1.28,2.32,.24,.82-.18,1.88,.17,2.64,.35,.77,1.43,1.15,1.88,1.86,.46,.71,.36,1.85,.91,2.49,.55,.64,1.69,.7,2.33,1.26,.64,.55,.86,1.67,1.57,2.13,.71,.46,1.82,.2,2.59,.55,.76,.35,1.29,1.36,2.11,1.6,.8,.24,1.79-.33,2.64-.21,.83,.12,1.62,.94,2.48,.94s1.65-.82,2.48-.94c.85-.12,1.84,.44,2.64,.21,.82-.24,1.35-1.25,2.11-1.6,.77-.35,1.88-.09,2.59-.55,.71-.46,.93-1.58,1.57-2.13,.64-.55,1.78-.62,2.33-1.26,.55-.64,.45-1.77,.91-2.49,.46-.71,1.53-1.09,1.88-1.86,.35-.76-.07-1.82,.17-2.64,.24-.8,1.16-1.47,1.28-2.32,.12-.83-.58-1.72-.58-2.58Z" style="fill:#fff; opacity:.69;"></path><g><path d="M201.26,243.12c-.91,1.93-2.37,2.95-3.26,2.29s-.88-2.76,.03-4.69c.91-1.93,2.37-2.95,3.26-2.29s.88,2.76-.03,4.69Z" style="fill:#92E3A9;"></path><path d="M205.56,242.49c.24,2.22-.4,4.16-1.43,4.33-1.03,.17-2.05-1.48-2.29-3.7-.24-2.22,.4-4.16,1.43-4.33,1.03-.17,2.05,1.48,2.29,3.7Z" style="fill:#92E3A9;"></path><path d="M208.57,238.75c1.49,1.23,2.24,3.1,1.68,4.19s-2.24,.98-3.73-.25-2.24-3.1-1.68-4.19,2.24-.98,3.73,.25Z" style="fill:#92E3A9;"></path><path d="M198.21,240.52c-1.34,1.47-2.99,1.87-3.67,.89-.68-.98-.14-2.97,1.2-4.44s2.99-1.87,3.67-.89c.68,.98,.14,2.97-1.2,4.44Z" style="fill:#92E3A9;"></path></g><g><path d="M197.41,249.88c2.05-.11,3.78,.64,3.86,1.67s-1.53,1.96-3.59,2.08c-2.05,.11-3.78-.64-3.86-1.67s1.53-1.96,3.59-2.08Z" style="fill:#92E3A9;"></path><path d="M194.13,246.61c1.53-1.19,3.42-1.53,4.22-.76s.2,2.36-1.33,3.55c-1.53,1.19-3.42,1.53-4.22,.76-.8-.77-.2-2.36,1.33-3.55Z" style="fill:#92E3A9;"></path><path d="M189.34,245.8c-.04-1.78,.9-3.24,2.1-3.26,1.2-.02,2.2,1.41,2.23,3.2s-.9,3.24-2.1,3.26c-1.2,.02-2.2-1.41-2.23-3.2Z" style="fill:#92E3A9;"></path><path d="M197.41,253.57c1.99,.45,3.36,1.63,3.06,2.63-.3,1-2.16,1.45-4.16,1-1.99-.45-3.36-1.63-3.06-2.63,.3-1,2.16-1.45,4.16-1Z" style="fill:#92E3A9;"></path></g><g><path d="M205.9,251.49c-2.05-.11-3.78,.64-3.86,1.67s1.53,1.96,3.59,2.08c2.05,.11,3.78-.64,3.86-1.67s-1.53-1.96-3.59-2.08Z" style="fill:#92E3A9;"></path><path d="M209.18,248.21c-1.53-1.19-3.42-1.53-4.22-.76s-.2,2.36,1.33,3.55c1.53,1.19,3.42,1.53,4.22,.76,.8-.77,.2-2.36-1.33-3.55Z" style="fill:#92E3A9;"></path><path d="M213.98,247.4c.04-1.78-.9-3.24-2.1-3.26-1.2-.02-2.2,1.41-2.23,3.2s.9,3.24,2.1,3.26c1.2,.02,2.2-1.41,2.23-3.2Z" style="fill:#92E3A9;"></path><path d="M205.9,255.17c-1.99,.45-3.36,1.63-3.06,2.63,.3,1,2.16,1.45,4.16,1,1.99-.45,3.36-1.63,3.06-2.63-.3-1-2.16-1.45-4.16-1Z" style="fill:#92E3A9;"></path></g></g><g><path d="M173.07,275.22c0-.95,.77-1.95,.64-2.86-.13-.94-1.16-1.68-1.42-2.57-.27-.91,.19-2.08-.19-2.93-.39-.86-1.58-1.28-2.09-2.06-.51-.79-.4-2.05-1.01-2.75-.61-.71-1.87-.78-2.58-1.39-.71-.61-.95-1.85-1.74-2.36-.79-.51-2.01-.22-2.87-.61-.85-.39-1.43-1.51-2.34-1.77-.89-.26-1.99,.36-2.92,.23-.92-.13-1.79-1.04-2.74-1.04s-1.83,.91-2.74,1.04c-.94,.13-2.03-.49-2.92-.23-.91,.27-1.49,1.38-2.34,1.77-.86,.39-2.08,.1-2.87,.61-.79,.51-1.04,1.75-1.74,2.36-.71,.61-1.97,.68-2.58,1.39-.61,.71-.5,1.96-1.01,2.75-.51,.78-1.7,1.2-2.09,2.06-.39,.85,.07,2.02-.19,2.93-.26,.89-1.28,1.63-1.42,2.57-.13,.92,.64,1.91,.64,2.86s-.77,1.95-.64,2.86c.13,.94,1.16,1.68,1.42,2.57,.27,.91-.19,2.08,.19,2.93,.39,.86,1.58,1.28,2.09,2.06,.51,.79,.4,2.05,1.01,2.75,.61,.71,1.87,.78,2.58,1.39,.71,.61,.95,1.85,1.74,2.36,.79,.51,2.01,.22,2.87,.61,.85,.39,1.43,1.51,2.34,1.77,.89,.26,1.99-.36,2.92-.23,.92,.13,1.79,1.04,2.74,1.04s1.83-.91,2.74-1.04c.94-.13,2.03,.49,2.92,.23,.91-.27,1.49-1.38,2.34-1.77,.86-.39,2.08-.1,2.87-.61,.79-.51,1.04-1.75,1.74-2.36,.71-.61,1.97-.68,2.58-1.39,.61-.71,.5-1.96,1.01-2.75,.51-.79,1.7-1.2,2.09-2.06,.39-.85-.07-2.02,.19-2.93,.26-.89,1.28-1.63,1.42-2.57,.13-.92-.64-1.91-.64-2.86Z" style="fill:#92E3A9; stroke:#263238; stroke-linecap:round; stroke-linejoin:round;"></path><path d="M171.19,275.22c0-.86,.7-1.76,.58-2.58-.12-.85-1.04-1.51-1.28-2.32-.24-.82,.18-1.88-.17-2.64-.35-.77-1.43-1.15-1.88-1.86-.46-.71-.36-1.85-.91-2.49-.55-.64-1.69-.7-2.33-1.26-.64-.55-.86-1.67-1.57-2.13-.71-.46-1.82-.2-2.59-.55-.76-.35-1.29-1.36-2.11-1.6-.8-.24-1.79,.33-2.64,.21-.83-.12-1.62-.94-2.48-.94s-1.65,.82-2.48,.94c-.85,.12-1.84-.44-2.64-.21-.82,.24-1.35,1.25-2.11,1.6-.77,.35-1.88,.09-2.59,.55-.71,.46-.93,1.58-1.57,2.13-.64,.55-1.78,.62-2.33,1.26-.55,.64-.45,1.77-.91,2.49-.46,.71-1.53,1.09-1.88,1.86-.35,.76,.07,1.82-.17,2.64-.24,.8-1.16,1.47-1.28,2.32-.12,.83,.58,1.72,.58,2.58s-.7,1.76-.58,2.58c.12,.85,1.04,1.51,1.28,2.32,.24,.82-.18,1.88,.17,2.64,.35,.77,1.43,1.15,1.88,1.86,.46,.71,.36,1.85,.91,2.49,.55,.64,1.69,.7,2.33,1.26,.64,.55,.86,1.67,1.57,2.13,.71,.46,1.82,.2,2.59,.55,.76,.35,1.29,1.36,2.11,1.6,.8,.24,1.79-.33,2.64-.21,.83,.12,1.62,.94,2.48,.94s1.65-.82,2.48-.94c.85-.12,1.84,.44,2.64,.21,.82-.24,1.35-1.25,2.11-1.6,.77-.35,1.88-.09,2.59-.55,.71-.46,.93-1.58,1.57-2.13,.64-.55,1.78-.62,2.33-1.26,.55-.64,.45-1.77,.91-2.49,.46-.71,1.53-1.09,1.88-1.86,.35-.76-.07-1.82,.17-2.64,.24-.8,1.16-1.47,1.28-2.32,.12-.83-.58-1.72-.58-2.58Z" style="fill:#fff; opacity:.69;"></path><g><path d="M153.52,270.3c-.91,1.93-2.37,2.95-3.26,2.29s-.88-2.76,.03-4.69,2.37-2.95,3.26-2.29,.88,2.76-.03,4.69Z" style="fill:#92E3A9;"></path><path d="M157.82,269.66c.24,2.22-.4,4.16-1.43,4.33s-2.05-1.48-2.29-3.7,.4-4.16,1.43-4.33,2.05,1.48,2.29,3.7Z" style="fill:#92E3A9;"></path><path d="M160.83,265.92c1.49,1.23,2.24,3.1,1.68,4.19s-2.24,.98-3.73-.25c-1.49-1.23-2.24-3.1-1.68-4.19s2.24-.98,3.73,.25Z" style="fill:#92E3A9;"></path><path d="M150.48,267.69c-1.34,1.47-2.99,1.87-3.67,.89s-.14-2.97,1.2-4.44c1.34-1.47,2.99-1.87,3.67-.89s.14,2.97-1.2,4.44Z" style="fill:#92E3A9;"></path></g><g><path d="M149.68,277.06c2.06-.11,3.78,.64,3.86,1.67s-1.53,1.96-3.59,2.08c-2.05,.11-3.78-.64-3.86-1.67-.07-1.03,1.53-1.96,3.59-2.08Z" style="fill:#92E3A9;"></path><path d="M146.4,273.78c1.53-1.19,3.42-1.53,4.22-.76,.8,.77,.2,2.36-1.33,3.55-1.53,1.19-3.42,1.53-4.22,.76-.8-.77-.2-2.36,1.33-3.55Z" style="fill:#92E3A9;"></path><path d="M141.6,272.97c-.04-1.78,.9-3.25,2.1-3.26,1.2-.02,2.2,1.41,2.23,3.2s-.9,3.24-2.1,3.26c-1.2,.02-2.2-1.41-2.23-3.2Z" style="fill:#92E3A9;"></path><path d="M149.68,280.74c1.99,.45,3.36,1.63,3.06,2.63-.3,1-2.16,1.45-4.16,1-1.99-.45-3.36-1.63-3.06-2.63,.3-1,2.16-1.45,4.16-1Z" style="fill:#92E3A9;"></path></g><g><path d="M158.16,278.66c-2.06-.11-3.78,.64-3.86,1.67s1.53,1.96,3.58,2.08c2.05,.11,3.78-.64,3.86-1.67,.07-1.03-1.53-1.96-3.59-2.08Z" style="fill:#92E3A9;"></path><path d="M161.44,275.39c-1.53-1.19-3.42-1.53-4.22-.76-.8,.77-.2,2.36,1.33,3.55,1.53,1.19,3.42,1.53,4.22,.76,.8-.77,.2-2.36-1.33-3.55Z" style="fill:#92E3A9;"></path><path d="M166.24,274.57c.04-1.78-.9-3.24-2.1-3.26-1.2-.02-2.2,1.41-2.23,3.2s.9,3.25,2.1,3.26c1.2,.02,2.2-1.41,2.23-3.2Z" style="fill:#92E3A9;"></path><path d="M158.17,282.34c-1.99,.45-3.36,1.63-3.06,2.63,.3,1,2.16,1.45,4.16,1,1.99-.45,3.36-1.63,3.06-2.63-.3-1-2.16-1.45-4.16-1Z" style="fill:#92E3A9;"></path></g></g><g><path d="M146.12,260.43c0-.95,.77-1.95,.64-2.86-.13-.94-1.16-1.68-1.42-2.57-.27-.91,.19-2.08-.19-2.93-.39-.86-1.58-1.28-2.09-2.06-.51-.79-.4-2.05-1.01-2.75-.61-.71-1.87-.78-2.58-1.39-.71-.61-.95-1.85-1.74-2.36-.79-.51-2.01-.22-2.87-.61-.85-.39-1.43-1.51-2.34-1.77-.89-.26-1.99,.36-2.92,.23-.92-.13-1.79-1.04-2.74-1.04s-1.83,.91-2.74,1.04c-.94,.13-2.03-.49-2.92-.23-.91,.27-1.49,1.38-2.34,1.77-.86,.39-2.08,.1-2.87,.61-.79,.51-1.04,1.75-1.74,2.36-.71,.61-1.97,.68-2.58,1.39-.61,.71-.5,1.96-1.01,2.75-.51,.79-1.7,1.2-2.09,2.06-.39,.85,.07,2.02-.19,2.93-.26,.89-1.28,1.63-1.42,2.57-.13,.92,.64,1.91,.64,2.86s-.77,1.95-.64,2.86c.13,.94,1.16,1.68,1.42,2.57,.27,.91-.19,2.08,.19,2.93,.39,.86,1.58,1.28,2.09,2.06,.51,.79,.4,2.05,1.01,2.75,.61,.71,1.87,.78,2.58,1.39,.71,.61,.95,1.85,1.74,2.36,.78,.51,2.01,.22,2.87,.61,.85,.39,1.43,1.51,2.34,1.77,.89,.26,1.99-.36,2.92-.23,.92,.13,1.79,1.04,2.74,1.04s1.83-.91,2.74-1.04c.94-.13,2.03,.49,2.92,.23,.91-.27,1.49-1.38,2.34-1.77,.86-.39,2.08-.1,2.87-.61,.79-.51,1.04-1.75,1.74-2.36,.71-.61,1.97-.68,2.58-1.39,.61-.71,.5-1.96,1.01-2.75,.51-.79,1.7-1.2,2.09-2.06,.39-.85-.07-2.02,.19-2.93,.26-.89,1.28-1.63,1.42-2.57,.13-.92-.64-1.91-.64-2.86Z" style="fill:#92E3A9; stroke:#263238; stroke-linecap:round; stroke-linejoin:round;"></path><path d="M144.24,260.43c0-.86,.7-1.76,.58-2.58-.12-.85-1.04-1.51-1.28-2.32-.24-.82,.18-1.88-.17-2.64-.35-.77-1.43-1.15-1.88-1.86-.46-.71-.36-1.85-.91-2.49-.55-.64-1.69-.7-2.33-1.26-.64-.55-.86-1.67-1.57-2.13-.71-.46-1.82-.2-2.59-.55-.76-.35-1.29-1.36-2.11-1.6-.8-.24-1.79,.33-2.64,.21-.83-.12-1.62-.94-2.48-.94s-1.65,.82-2.48,.94c-.85,.12-1.84-.44-2.64-.21-.82,.24-1.35,1.25-2.11,1.6-.77,.35-1.88,.09-2.59,.55-.71,.46-.93,1.58-1.57,2.13-.64,.55-1.78,.62-2.33,1.26-.55,.64-.45,1.77-.91,2.49-.46,.71-1.53,1.09-1.88,1.86-.35,.76,.07,1.82-.17,2.64-.24,.8-1.16,1.47-1.28,2.32-.12,.83,.58,1.72,.58,2.58s-.7,1.76-.58,2.58c.12,.85,1.04,1.51,1.28,2.32,.24,.82-.18,1.88,.17,2.64,.35,.77,1.43,1.15,1.88,1.86,.46,.71,.36,1.85,.91,2.49,.55,.64,1.69,.7,2.33,1.26,.64,.55,.86,1.67,1.57,2.13,.71,.46,1.82,.2,2.59,.55,.76,.35,1.29,1.36,2.11,1.6,.8,.24,1.79-.33,2.64-.21,.83,.12,1.62,.94,2.48,.94s1.65-.82,2.48-.94c.85-.12,1.84,.44,2.64,.21,.82-.24,1.35-1.25,2.11-1.6,.77-.35,1.88-.09,2.59-.55,.71-.46,.93-1.58,1.57-2.13,.64-.55,1.78-.62,2.33-1.26,.55-.64,.45-1.77,.91-2.49,.46-.71,1.53-1.09,1.88-1.86,.35-.76-.07-1.82,.17-2.64,.24-.8,1.16-1.47,1.28-2.32,.12-.83-.58-1.72-.58-2.58Z" style="fill:#fff; opacity:.69;"></path><g><path d="M126.57,255.5c-.91,1.93-2.37,2.95-3.26,2.29-.89-.66-.88-2.76,.03-4.69,.91-1.93,2.37-2.95,3.26-2.29s.88,2.76-.03,4.69Z" style="fill:#92E3A9;"></path><path d="M130.88,254.86c.24,2.22-.4,4.16-1.43,4.33s-2.05-1.48-2.29-3.7c-.24-2.22,.4-4.16,1.43-4.33,1.03-.17,2.05,1.48,2.29,3.7Z" style="fill:#92E3A9;"></path><path d="M133.89,251.13c1.49,1.23,2.24,3.1,1.68,4.19s-2.24,.98-3.73-.25c-1.49-1.23-2.24-3.1-1.68-4.19,.57-1.09,2.24-.98,3.73,.25Z" style="fill:#92E3A9;"></path><path d="M123.53,252.9c-1.34,1.47-2.99,1.87-3.67,.89-.68-.98-.14-2.97,1.2-4.44,1.34-1.47,2.99-1.87,3.67-.89,.68,.98,.14,2.97-1.2,4.44Z" style="fill:#92E3A9;"></path></g><g><path d="M122.73,262.26c2.05-.11,3.78,.64,3.86,1.67s-1.53,1.96-3.59,2.08-3.78-.64-3.86-1.67,1.53-1.96,3.59-2.08Z" style="fill:#92E3A9;"></path><path d="M119.45,258.99c1.53-1.19,3.42-1.53,4.22-.76s.2,2.36-1.33,3.55c-1.53,1.19-3.42,1.53-4.22,.76-.8-.77-.2-2.36,1.33-3.55Z" style="fill:#92E3A9;"></path><path d="M114.66,258.18c-.04-1.78,.9-3.24,2.1-3.26,1.2-.02,2.2,1.41,2.23,3.2s-.9,3.25-2.1,3.26c-1.2,.02-2.2-1.41-2.23-3.2Z" style="fill:#92E3A9;"></path><path d="M122.73,265.94c1.99,.45,3.36,1.63,3.06,2.63-.3,1-2.16,1.45-4.16,1-1.99-.45-3.36-1.63-3.06-2.63,.3-1,2.16-1.45,4.16-1Z" style="fill:#92E3A9;"></path></g><g><path d="M131.22,263.86c-2.05-.11-3.78,.64-3.86,1.67s1.53,1.96,3.59,2.08c2.05,.11,3.78-.64,3.86-1.67s-1.53-1.96-3.59-2.08Z" style="fill:#92E3A9;"></path><path d="M134.5,260.59c-1.53-1.19-3.42-1.53-4.22-.76-.8,.77-.2,2.36,1.33,3.55,1.53,1.19,3.42,1.53,4.22,.76,.8-.77,.2-2.36-1.33-3.55Z" style="fill:#92E3A9;"></path><path d="M139.29,259.78c.04-1.78-.9-3.24-2.1-3.26-1.2-.02-2.2,1.41-2.23,3.2-.04,1.78,.9,3.24,2.1,3.26,1.2,.02,2.2-1.41,2.23-3.2Z" style="fill:#92E3A9;"></path><path d="M131.22,267.55c-1.99,.45-3.36,1.63-3.06,2.63,.3,1,2.16,1.45,4.16,1,1.99-.45,3.36-1.63,3.06-2.63s-2.16-1.45-4.16-1Z" style="fill:#92E3A9;"></path></g></g><g><path d="M216.44,305.44c0-.95,.77-1.95,.64-2.86-.13-.94-1.16-1.68-1.42-2.57-.27-.91,.19-2.08-.19-2.93-.39-.86-1.58-1.28-2.09-2.06-.51-.79-.4-2.05-1.01-2.75-.61-.71-1.87-.78-2.58-1.39-.71-.61-.95-1.85-1.74-2.36-.79-.51-2.01-.22-2.87-.61-.85-.39-1.43-1.51-2.34-1.77-.89-.26-1.99,.36-2.92,.23-.92-.13-1.79-1.04-2.74-1.04s-1.83,.91-2.74,1.04c-.94,.13-2.03-.49-2.92-.23-.91,.27-1.49,1.38-2.34,1.77-.86,.39-2.08,.1-2.87,.61-.79,.51-1.04,1.75-1.74,2.36-.71,.61-1.97,.68-2.58,1.39-.61,.71-.5,1.96-1.01,2.75-.51,.79-1.7,1.2-2.09,2.06-.39,.85,.07,2.02-.19,2.93-.26,.89-1.28,1.63-1.42,2.57-.13,.92,.64,1.91,.64,2.86s-.77,1.95-.64,2.86c.13,.94,1.16,1.68,1.42,2.57,.27,.91-.19,2.08,.19,2.93,.39,.86,1.58,1.28,2.09,2.06,.51,.79,.4,2.05,1.01,2.75,.61,.71,1.87,.78,2.58,1.39,.71,.61,.95,1.85,1.74,2.36,.79,.51,2.01,.22,2.87,.61,.85,.39,1.43,1.51,2.34,1.77,.89,.26,1.99-.36,2.92-.23,.92,.13,1.79,1.04,2.74,1.04s1.83-.91,2.74-1.04c.94-.13,2.03,.49,2.92,.23,.91-.27,1.49-1.38,2.34-1.77,.86-.39,2.08-.1,2.87-.61,.79-.51,1.04-1.75,1.74-2.36,.71-.61,1.97-.68,2.58-1.39,.61-.71,.5-1.96,1.01-2.75,.51-.79,1.7-1.2,2.09-2.06,.39-.85-.07-2.02,.19-2.93,.26-.89,1.28-1.63,1.42-2.57,.13-.92-.64-1.91-.64-2.86Z" style="fill:#92E3A9; stroke:#263238; stroke-linecap:round; stroke-linejoin:round;"></path><path d="M214.56,305.44c0-.86,.7-1.76,.58-2.58-.12-.85-1.04-1.51-1.28-2.32-.24-.82,.18-1.88-.17-2.64-.35-.77-1.43-1.15-1.88-1.86-.46-.71-.36-1.85-.91-2.49-.55-.64-1.69-.7-2.33-1.26-.64-.55-.86-1.67-1.57-2.13-.71-.46-1.82-.2-2.59-.55-.76-.35-1.29-1.36-2.11-1.6-.8-.24-1.79,.33-2.64,.21-.83-.12-1.62-.94-2.48-.94s-1.65,.82-2.48,.94c-.85,.12-1.84-.44-2.64-.21-.82,.24-1.35,1.25-2.11,1.6-.77,.35-1.88,.09-2.59,.55-.71,.46-.93,1.58-1.57,2.13-.64,.55-1.78,.62-2.33,1.26-.55,.64-.45,1.77-.91,2.49-.46,.71-1.53,1.09-1.88,1.86-.35,.76,.07,1.82-.17,2.64-.24,.8-1.16,1.47-1.28,2.32-.12,.83,.58,1.72,.58,2.58s-.7,1.76-.58,2.58c.12,.85,1.04,1.51,1.28,2.32,.24,.82-.18,1.88,.17,2.64,.35,.77,1.43,1.15,1.88,1.86,.46,.71,.36,1.85,.91,2.49,.55,.64,1.69,.7,2.33,1.26,.64,.55,.86,1.67,1.57,2.13,.71,.46,1.82,.2,2.59,.55,.76,.35,1.29,1.36,2.11,1.6,.8,.24,1.79-.33,2.64-.21,.83,.12,1.62,.94,2.48,.94s1.65-.82,2.48-.94c.85-.12,1.84,.44,2.64,.21,.82-.24,1.35-1.25,2.11-1.6,.77-.35,1.88-.09,2.59-.55,.71-.46,.93-1.58,1.57-2.13,.64-.55,1.78-.62,2.33-1.26,.55-.64,.45-1.77,.91-2.49,.46-.71,1.53-1.09,1.88-1.86,.35-.76-.07-1.82,.17-2.64,.24-.8,1.16-1.47,1.28-2.32,.12-.83-.58-1.72-.58-2.58Z" style="fill:#fff; opacity:.69;"></path><g><path d="M196.9,300.51c-.91,1.93-2.37,2.95-3.26,2.29s-.88-2.76,.03-4.69c.91-1.93,2.37-2.95,3.26-2.29,.89,.66,.88,2.76-.03,4.69Z" style="fill:#92E3A9;"></path><path d="M201.2,299.87c.24,2.22-.4,4.16-1.43,4.33-1.03,.17-2.05-1.48-2.29-3.7-.24-2.22,.4-4.16,1.43-4.33,1.03-.17,2.05,1.48,2.29,3.7Z" style="fill:#92E3A9;"></path><path d="M204.21,296.14c1.49,1.23,2.24,3.1,1.68,4.19-.57,1.09-2.24,.98-3.73-.25-1.49-1.23-2.24-3.1-1.68-4.19,.57-1.09,2.24-.98,3.73,.25Z" style="fill:#92E3A9;"></path><path d="M193.85,297.91c-1.34,1.47-2.99,1.87-3.67,.89-.68-.98-.14-2.97,1.2-4.44,1.34-1.47,2.99-1.87,3.67-.89,.68,.98,.14,2.97-1.2,4.44Z" style="fill:#92E3A9;"></path></g><g><path d="M193.05,307.27c2.05-.11,3.78,.64,3.86,1.67s-1.53,1.96-3.59,2.08c-2.05,.11-3.78-.64-3.86-1.67s1.53-1.96,3.59-2.08Z" style="fill:#92E3A9;"></path><path d="M189.77,304c1.53-1.19,3.42-1.53,4.22-.76,.8,.77,.2,2.36-1.33,3.55-1.53,1.19-3.42,1.53-4.22,.76-.8-.77-.2-2.36,1.33-3.55Z" style="fill:#92E3A9;"></path><path d="M184.98,303.19c-.04-1.78,.9-3.24,2.1-3.26,1.2-.02,2.2,1.41,2.23,3.2,.04,1.78-.9,3.24-2.1,3.26-1.2,.02-2.2-1.41-2.23-3.2Z" style="fill:#92E3A9;"></path><path d="M193.05,310.95c1.99,.45,3.36,1.63,3.06,2.63-.3,1-2.16,1.45-4.16,1-1.99-.45-3.36-1.63-3.06-2.63,.3-1,2.16-1.45,4.16-1Z" style="fill:#92E3A9;"></path></g><g><path d="M201.54,308.87c-2.05-.11-3.78,.64-3.86,1.67-.07,1.03,1.53,1.96,3.58,2.08,2.05,.11,3.78-.64,3.86-1.67s-1.53-1.96-3.58-2.08Z" style="fill:#92E3A9;"></path><path d="M204.82,305.6c-1.53-1.19-3.42-1.53-4.22-.76-.8,.77-.2,2.36,1.33,3.55,1.53,1.19,3.42,1.53,4.22,.76s.2-2.36-1.33-3.55Z" style="fill:#92E3A9;"></path><path d="M209.62,304.79c.04-1.78-.9-3.24-2.1-3.26-1.2-.02-2.2,1.41-2.23,3.2s.9,3.24,2.1,3.26c1.2,.02,2.2-1.41,2.23-3.2Z" style="fill:#92E3A9;"></path><path d="M201.54,312.56c-1.99,.45-3.36,1.63-3.06,2.63,.3,1,2.16,1.45,4.16,1,1.99-.45,3.36-1.63,3.06-2.63-.3-1-2.16-1.45-4.16-1Z" style="fill:#92E3A9;"></path></g></g><g><path d="M216.32,352.58c0-.95,.77-1.95,.64-2.86-.13-.94-1.16-1.68-1.42-2.57-.27-.91,.19-2.08-.19-2.93-.39-.86-1.58-1.28-2.09-2.06-.51-.79-.4-2.05-1.01-2.75-.61-.71-1.87-.78-2.58-1.39-.71-.61-.95-1.85-1.74-2.36-.79-.51-2.01-.22-2.87-.61-.85-.39-1.43-1.51-2.34-1.77-.89-.26-1.99,.36-2.92,.23-.92-.13-1.79-1.04-2.74-1.04s-1.83,.91-2.74,1.04c-.94,.13-2.03-.49-2.92-.23-.91,.27-1.49,1.38-2.34,1.77-.86,.39-2.08,.1-2.87,.61-.79,.51-1.04,1.75-1.74,2.36-.71,.61-1.97,.68-2.58,1.39-.61,.71-.5,1.96-1.01,2.75-.51,.79-1.7,1.2-2.09,2.06-.39,.85,.07,2.02-.19,2.93-.26,.89-1.28,1.63-1.42,2.57-.13,.92,.64,1.91,.64,2.86s-.77,1.95-.64,2.86c.13,.94,1.16,1.68,1.42,2.57,.27,.91-.19,2.08,.19,2.93,.39,.86,1.58,1.28,2.09,2.06,.51,.79,.4,2.05,1.01,2.75,.61,.71,1.87,.78,2.58,1.39,.71,.61,.95,1.85,1.74,2.36,.79,.51,2.01,.22,2.87,.61,.85,.39,1.43,1.51,2.34,1.77,.89,.26,1.99-.36,2.92-.23,.92,.13,1.79,1.04,2.74,1.04s1.83-.91,2.74-1.04c.94-.13,2.03,.49,2.92,.23,.91-.27,1.49-1.38,2.34-1.77,.86-.39,2.08-.1,2.87-.61,.79-.51,1.04-1.75,1.74-2.36,.71-.61,1.97-.68,2.58-1.39,.61-.71,.5-1.96,1.01-2.75,.51-.78,1.7-1.2,2.09-2.06,.39-.85-.07-2.02,.19-2.93,.26-.89,1.28-1.63,1.42-2.57,.13-.92-.64-1.91-.64-2.86Z" style="fill:#92E3A9; stroke:#263238; stroke-linecap:round; stroke-linejoin:round;"></path><path d="M214.44,352.58c0-.86,.7-1.76,.58-2.58-.12-.85-1.04-1.51-1.28-2.32-.24-.82,.18-1.88-.17-2.64-.35-.77-1.43-1.15-1.88-1.86-.46-.71-.36-1.85-.91-2.49-.55-.64-1.69-.7-2.33-1.26-.64-.55-.86-1.67-1.57-2.13-.71-.46-1.82-.2-2.59-.55-.76-.35-1.29-1.36-2.11-1.6-.8-.24-1.79,.33-2.64,.21-.83-.12-1.62-.94-2.48-.94s-1.65,.82-2.48,.94c-.85,.12-1.84-.44-2.64-.21-.82,.24-1.35,1.25-2.11,1.6-.77,.35-1.88,.09-2.59,.55-.71,.46-.93,1.58-1.57,2.13-.64,.55-1.78,.62-2.33,1.26-.55,.64-.45,1.77-.91,2.49-.46,.71-1.53,1.09-1.88,1.86-.35,.76,.07,1.82-.17,2.64-.24,.8-1.16,1.47-1.28,2.32-.12,.83,.58,1.72,.58,2.58s-.7,1.76-.58,2.58c.12,.85,1.04,1.51,1.28,2.32,.24,.82-.18,1.88,.17,2.64,.35,.77,1.43,1.15,1.88,1.86,.46,.71,.36,1.85,.91,2.49,.55,.64,1.69,.7,2.33,1.26,.64,.55,.86,1.67,1.57,2.13,.71,.46,1.82,.2,2.59,.55,.76,.35,1.29,1.36,2.11,1.6,.8,.24,1.79-.33,2.64-.21,.83,.12,1.62,.94,2.48,.94s1.65-.82,2.48-.94c.85-.12,1.84,.44,2.64,.21,.82-.24,1.35-1.25,2.11-1.6,.77-.35,1.88-.09,2.59-.55,.71-.46,.93-1.58,1.57-2.13,.64-.55,1.78-.62,2.33-1.26,.55-.64,.45-1.77,.91-2.49,.46-.71,1.53-1.09,1.88-1.86,.35-.76-.07-1.82,.17-2.64,.24-.8,1.16-1.47,1.28-2.32,.12-.83-.58-1.72-.58-2.58Z" style="fill:#fff; opacity:.69;"></path><g><path d="M196.77,347.66c-.91,1.93-2.37,2.95-3.26,2.29s-.88-2.76,.03-4.69c.91-1.93,2.37-2.95,3.26-2.29s.88,2.76-.03,4.69Z" style="fill:#92E3A9;"></path><path d="M201.08,347.02c.24,2.22-.4,4.16-1.43,4.33s-2.05-1.48-2.29-3.7c-.24-2.22,.4-4.16,1.43-4.33,1.03-.17,2.05,1.48,2.29,3.7Z" style="fill:#92E3A9;"></path><path d="M204.09,343.28c1.49,1.23,2.24,3.1,1.68,4.19-.57,1.09-2.24,.98-3.73-.25-1.49-1.23-2.24-3.1-1.68-4.19s2.24-.98,3.73,.25Z" style="fill:#92E3A9;"></path><path d="M193.73,345.06c-1.34,1.47-2.99,1.87-3.67,.89-.68-.98-.14-2.97,1.2-4.44,1.34-1.47,2.99-1.87,3.67-.89,.68,.98,.14,2.97-1.2,4.44Z" style="fill:#92E3A9;"></path></g><g><path d="M192.93,354.42c2.05-.11,3.78,.64,3.86,1.67s-1.53,1.96-3.59,2.08c-2.05,.11-3.78-.64-3.86-1.67s1.53-1.96,3.59-2.08Z" style="fill:#92E3A9;"></path><path d="M189.65,351.15c1.53-1.19,3.42-1.53,4.22-.76,.8,.77,.2,2.36-1.33,3.55-1.53,1.19-3.42,1.53-4.22,.76-.8-.77-.2-2.36,1.33-3.55Z" style="fill:#92E3A9;"></path><path d="M184.85,350.34c-.04-1.78,.9-3.24,2.1-3.26,1.2-.02,2.2,1.41,2.23,3.2,.04,1.78-.9,3.24-2.1,3.26-1.2,.02-2.2-1.41-2.23-3.2Z" style="fill:#92E3A9;"></path><path d="M192.93,358.1c1.99,.45,3.36,1.63,3.06,2.63-.3,1-2.16,1.45-4.16,1-1.99-.45-3.36-1.63-3.06-2.63,.3-1,2.16-1.45,4.16-1Z" style="fill:#92E3A9;"></path></g><g><path d="M201.42,356.02c-2.05-.11-3.78,.64-3.86,1.67-.07,1.03,1.53,1.96,3.59,2.08,2.05,.11,3.78-.64,3.86-1.67s-1.53-1.96-3.58-2.08Z" style="fill:#92E3A9;"></path><path d="M204.7,352.75c-1.53-1.19-3.42-1.53-4.22-.76-.8,.77-.2,2.36,1.33,3.55,1.53,1.19,3.42,1.53,4.22,.76,.8-.77,.2-2.36-1.33-3.55Z" style="fill:#92E3A9;"></path><path d="M209.49,351.94c.04-1.78-.9-3.25-2.1-3.26-1.2-.02-2.2,1.41-2.23,3.2s.9,3.24,2.1,3.26c1.2,.02,2.2-1.41,2.23-3.2Z" style="fill:#92E3A9;"></path><path d="M201.42,359.71c-1.99,.45-3.36,1.63-3.06,2.63,.3,1,2.16,1.45,4.16,1,1.99-.45,3.36-1.63,3.06-2.63-.3-1-2.16-1.45-4.16-1Z" style="fill:#92E3A9;"></path></g></g><g><ellipse cx="130.65" cy="114.66" rx="23.58" ry="23.45" style="fill:#a3a3a3; stroke:#263238; stroke-linecap:round; stroke-linejoin:round;"></ellipse><path d="M121.89,110.2s2.3-2.65,.35-7.61c-1.95-4.95-3.54-9.55-3.54-9.55,0,0,6.37,15.04,10.62,16.28,4.25,1.24,18.75-5.84,18.75-5.84,0,0-13.27,10.26-12.74,12.92,.53,2.65,10.79,7.61,10.79,7.61,0,0-7.96-.18-12.56-.71-4.6-.53-5.13-.53-7.61,1.42-2.48,1.95-7.61,8.14-7.61,8.14,0,0,4.6-9.91,2.83-11.5s-6.72-1.42-12.39-1.42h-9.38s16.81-3.36,19.64-6.55l2.83-3.18Z" style="fill:#92E3A9; stroke:#263238; stroke-miterlimit:10;"></path><path d="M129.68,115.33c0,1.07-.87,1.95-1.95,1.95s-1.95-.87-1.95-1.95,.87-1.95,1.95-1.95,1.95,.87,1.95,1.95Z" style="fill:#92E3A9; stroke:#263238; stroke-miterlimit:10;"></path></g><g><ellipse cx="246.28" cy="287.7" rx="19.55" ry="19.65" transform="translate(-76.48 89.57) rotate(-17.89)" style="fill:#a3a3a3; stroke:#263238; stroke-linecap:round; stroke-linejoin:round;"></ellipse><path d="M247.57,279.61s2.69,1.14,6.13-1.67c3.43-2.81,6.67-5.26,6.67-5.26,0,0-10.3,8.91-10.19,12.59,.11,3.69,9.44,13.38,9.44,13.38,0,0-11.54-7.9-13.51-6.79-1.97,1.1-3.27,10.51-3.27,10.51,0,0-1.9-6.36-2.66-10.15s-.89-4.21-3.07-5.67c-2.18-1.47-8.41-3.95-8.41-3.95,0,0,9.04,1.11,9.85-.7,.81-1.81-.6-5.7-2.05-10.19s-2.4-7.44-2.4-7.44c0,0,6.97,12.47,10.23,13.9l3.25,1.43Z" style="fill:#92E3A9; stroke:#263238; stroke-miterlimit:10;"></path><path d="M245.5,287.1c-.85,.28-1.77-.19-2.04-1.05-.28-.85,.19-1.77,1.05-2.04,.85-.28,1.77,.19,2.04,1.05,.28,.85-.19,1.77-1.04,2.04Z" style="fill:#92E3A9; stroke:#263238; stroke-miterlimit:10;"></path></g><g><circle cx="197.09" cy="170.96" r="20.1" transform="translate(-63.16 189.44) rotate(-45)" style="fill:#a3a3a3; stroke:#263238; stroke-linecap:round; stroke-linejoin:round;"></circle><circle cx="197.09" cy="170.96" r="17.7" transform="translate(-63.16 189.44) rotate(-45)" style="fill:#bababa;"></circle><path d="M203.32,184c-.71-2.22-5.23-8.42-6.28-10.37-.09-.16-.21-.3-.37-.43l-3.14,5.39,1.52-6.06c-3.85-.82-11.58,.61-11.58,.61-6.15,4.73,4.05,12.65,11.06,13.94,7,1.28,9.5-.86,8.79-3.08Z" style="fill:#878787;"></path><path d="M212.81,167c-1.66-6.92-7.42-9.23-9.17-7.68-1.46,1.3-4.57,6.26-5.54,9.66l6.25,1.14-6.54,.75c.16,3.19,6.74,11.88,6.74,11.88,6.81,3.71,9.93-8.83,8.27-15.75Z" style="fill:#878787;"></path><path d="M191.06,165.45l5.36,3.14c1.66-3.1,2.38-10.44,2.38-10.44-2.63-7.3-13.29,0-16.65,6.28-3.36,6.28,1.31,7.45,3.65,7.45,2.04,0,6.65-.11,9.15-1.7l-3.89-4.72Z" style="fill:#878787;"></path><g><path d="M186.82,169.61c0,.52-.59,.95-1.31,.95s-1.31-.42-1.31-.95,.59-.95,1.31-.95,1.31,.43,1.31,.95Z" style="fill:#bababa;"></path><path d="M187.15,165.84c-.21,.48-.92,.63-1.59,.33-.66-.3-1.03-.92-.81-1.4,.21-.48,.92-.63,1.59-.33s1.03,.92,.81,1.4Z" style="fill:#bababa;"></path><path d="M191.39,163.22c-.4,.34-1.1,.18-1.58-.37-.48-.55-.54-1.27-.14-1.61,.4-.34,1.1-.18,1.58,.37s.54,1.27,.15,1.61Z" style="fill:#bababa;"></path><path d="M194.7,160.6c-.52,0-.95-.58-.96-1.31,0-.73,.42-1.32,.94-1.32,.52,0,.95,.58,.96,1.31,0,.73-.42,1.32-.94,1.32Z" style="fill:#bababa;"></path></g><g><path d="M206.06,165.4c-.37-.37-.26-1.08,.24-1.6s1.22-.64,1.6-.27,.26,1.08-.24,1.6c-.51,.52-1.22,.64-1.6,.27Z" style="fill:#bababa;"></path><path d="M208.52,168.27c-.19-.49,.2-1.1,.88-1.36,.68-.26,1.38-.08,1.57,.4,.19,.49-.2,1.1-.88,1.36-.68,.26-1.38,.08-1.57-.4Z" style="fill:#bababa;"></path><path d="M207.42,173.13c.03-.52,.65-.91,1.37-.87,.72,.04,1.29,.5,1.25,1.03-.03,.52-.65,.91-1.37,.87-.72-.04-1.29-.5-1.25-1.03Z" style="fill:#bababa;"></path><path d="M206.97,177.34c.36-.38,1.08-.27,1.6,.23,.52,.5,.65,1.22,.28,1.6-.36,.38-1.08,.27-1.6-.23-.52-.5-.65-1.22-.28-1.6Z" style="fill:#bababa;"></path></g><g><path d="M197.76,182.28c.51-.12,1.06,.35,1.23,1.06s-.11,1.38-.62,1.5-1.06-.35-1.23-1.06c-.17-.71,.11-1.38,.62-1.5Z" style="fill:#bababa;"></path><path d="M194.02,182.83c.51,.1,.82,.76,.69,1.47-.14,.71-.66,1.21-1.18,1.11-.51-.1-.82-.76-.69-1.47,.14-.71,.66-1.21,1.18-1.11Z" style="fill:#bababa;"></path><path d="M190.49,179.31c.43,.31,.43,1.03,0,1.62-.42,.59-1.11,.82-1.54,.51s-.43-1.03,0-1.62c.42-.59,1.11-.82,1.54-.51Z" style="fill:#bababa;"></path><path d="M187.18,176.69c.12,.51-.35,1.06-1.05,1.23-.7,.17-1.38-.1-1.5-.61-.12-.51,.35-1.06,1.05-1.23,.71-.17,1.38,.1,1.5,.61Z" style="fill:#bababa;"></path></g></g><g><circle cx="175.76" cy="127.43" r="20.1" transform="translate(-40 151.47) rotate(-42.3)" style="fill:#a3a3a3; stroke:#263238; stroke-linecap:round; stroke-linejoin:round;"></circle><circle cx="175.76" cy="127.43" r="17.7" transform="translate(-38.63 161.6) rotate(-45)" style="fill:#bababa;"></circle><path d="M181.99,140.46c-.71-2.22-5.23-8.42-6.28-10.37-.09-.16-.21-.3-.37-.43l-3.14,5.39,1.52-6.06c-3.85-.82-11.58,.61-11.58,.61-6.15,4.73,4.05,12.65,11.06,13.94,7,1.28,9.5-.86,8.79-3.08Z" style="fill:#878787;"></path><path d="M191.47,123.47c-1.66-6.92-7.42-9.23-9.17-7.68-1.46,1.3-4.57,6.26-5.54,9.66l6.25,1.14-6.54,.75c.16,3.19,6.74,11.88,6.74,11.88,6.81,3.71,9.93-8.83,8.27-15.75Z" style="fill:#878787;"></path><path d="M169.72,121.92l5.36,3.14c1.66-3.1,2.38-10.44,2.38-10.44-2.63-7.3-13.29,0-16.65,6.28-3.36,6.28,1.31,7.45,3.65,7.45,2.04,0,6.65-.11,9.15-1.7l-3.89-4.72Z" style="fill:#878787;"></path><g><ellipse cx="164.18" cy="126.08" rx="1.31" ry=".95" style="fill:#bababa;"></ellipse><path d="M165.81,122.31c-.21,.48-.92,.63-1.59,.33-.66-.3-1.03-.92-.81-1.4s.92-.63,1.59-.33c.66,.3,1.03,.92,.81,1.4Z" style="fill:#bababa;"></path><path d="M170.05,119.69c-.4,.34-1.1,.18-1.58-.37-.48-.55-.54-1.27-.14-1.61,.4-.34,1.1-.18,1.58,.37,.48,.55,.54,1.27,.15,1.61Z" style="fill:#bababa;"></path><path d="M173.37,117.06c-.52,0-.95-.58-.96-1.31,0-.73,.42-1.32,.94-1.32,.52,0,.95,.58,.96,1.31,0,.73-.42,1.32-.94,1.32Z" style="fill:#bababa;"></path></g><g><path d="M184.73,121.86c-.37-.37-.26-1.08,.24-1.6,.51-.52,1.22-.64,1.6-.27,.37,.37,.26,1.08-.24,1.6s-1.22,.64-1.6,.27Z" style="fill:#bababa;"></path><path d="M187.19,124.73c-.19-.49,.2-1.1,.88-1.36,.68-.26,1.38-.08,1.57,.4,.19,.49-.2,1.1-.88,1.36-.68,.26-1.38,.08-1.57-.4Z" style="fill:#bababa;"></path><path d="M186.09,129.6c.03-.52,.65-.91,1.37-.87,.72,.04,1.29,.5,1.25,1.03s-.65,.91-1.37,.87-1.29-.5-1.25-1.03Z" style="fill:#bababa;"></path><path d="M185.64,133.8c.36-.38,1.08-.27,1.6,.23,.52,.5,.65,1.22,.28,1.6-.36,.38-1.08,.27-1.6-.23-.52-.5-.65-1.22-.28-1.6Z" style="fill:#bababa;"></path></g><g><path d="M176.43,138.75c.51-.12,1.06,.35,1.23,1.06,.17,.71-.11,1.38-.62,1.5s-1.06-.35-1.23-1.06,.11-1.38,.62-1.5Z" style="fill:#bababa;"></path><path d="M172.69,139.3c.51,.1,.82,.76,.69,1.47s-.66,1.21-1.18,1.11c-.51-.1-.82-.76-.69-1.47,.14-.71,.66-1.21,1.18-1.11Z" style="fill:#bababa;"></path><path d="M169.16,135.78c.43,.31,.43,1.03,0,1.62-.42,.59-1.11,.82-1.54,.51-.43-.31-.43-1.03,0-1.62,.42-.59,1.11-.82,1.54-.51Z" style="fill:#bababa;"></path><path d="M165.84,133.15c.12,.51-.35,1.06-1.05,1.23-.71,.17-1.38-.1-1.5-.61s.35-1.06,1.05-1.23c.7-.17,1.38,.1,1.5,.61Z" style="fill:#bababa;"></path></g></g><g><circle cx="140.88" cy="225.6" r="20.1" style="fill:#a3a3a3; stroke:#263238; stroke-linecap:round; stroke-linejoin:round;"></circle><circle cx="140.88" cy="225.6" r="17.7" transform="translate(-118.26 165.69) rotate(-45)" style="fill:#bababa;"></circle><path d="M147.11,238.63c-.71-2.22-5.23-8.42-6.28-10.37-.09-.16-.21-.3-.37-.43l-3.14,5.39,1.52-6.06c-3.85-.82-11.58,.61-11.58,.61-6.15,4.73,4.05,12.65,11.06,13.94s9.5-.86,8.79-3.08Z" style="fill:#878787;"></path><path d="M156.6,221.64c-1.66-6.92-7.42-9.23-9.17-7.68-1.46,1.3-4.57,6.26-5.54,9.66l6.25,1.14-6.54,.75c.16,3.19,6.74,11.88,6.74,11.88,6.81,3.71,9.93-8.83,8.27-15.75Z" style="fill:#878787;"></path><path d="M134.85,220.09l5.36,3.14c1.66-3.1,2.38-10.44,2.38-10.44-2.63-7.3-13.29,0-16.65,6.28s1.31,7.45,3.65,7.45c2.04,0,6.65-.11,9.15-1.7l-3.89-4.72Z" style="fill:#878787;"></path><g><ellipse cx="129.3" cy="224.25" rx="1.31" ry=".95" style="fill:#bababa;"></ellipse><path d="M130.94,220.48c-.21,.48-.92,.63-1.59,.33-.66-.3-1.03-.92-.81-1.4,.21-.48,.92-.63,1.59-.33,.66,.3,1.03,.92,.81,1.4Z" style="fill:#bababa;"></path><path d="M135.18,217.86c-.4,.34-1.1,.18-1.58-.37s-.54-1.27-.15-1.61c.4-.34,1.1-.18,1.58,.37,.48,.55,.54,1.27,.14,1.61Z" style="fill:#bababa;"></path><path d="M138.49,215.23c-.52,0-.95-.58-.96-1.31,0-.73,.42-1.32,.94-1.32,.52,0,.95,.58,.96,1.31,0,.73-.42,1.32-.94,1.32Z" style="fill:#bababa;"></path></g><g><path d="M149.85,220.03c-.37-.37-.26-1.08,.24-1.6,.51-.52,1.22-.64,1.6-.27,.37,.37,.26,1.08-.24,1.6s-1.22,.64-1.6,.27Z" style="fill:#bababa;"></path><path d="M152.31,222.91c-.19-.49,.2-1.1,.88-1.36s1.38-.08,1.57,.4c.19,.49-.2,1.1-.88,1.36s-1.38,.08-1.57-.4Z" style="fill:#bababa;"></path><path d="M151.21,227.77c.03-.52,.65-.91,1.37-.87,.72,.04,1.29,.5,1.25,1.03-.03,.52-.65,.91-1.37,.87s-1.29-.5-1.25-1.03Z" style="fill:#bababa;"></path><path d="M150.76,231.97c.36-.38,1.08-.27,1.6,.23s.65,1.22,.28,1.6c-.36,.38-1.08,.27-1.6-.23-.52-.5-.65-1.22-.28-1.6Z" style="fill:#bababa;"></path></g><g><path d="M141.55,236.92c.51-.12,1.06,.35,1.23,1.06,.17,.71-.11,1.38-.62,1.5s-1.06-.35-1.23-1.06,.11-1.38,.62-1.5Z" style="fill:#bababa;"></path><path d="M137.81,237.47c.51,.1,.82,.76,.69,1.47-.14,.71-.66,1.21-1.18,1.11-.51-.1-.82-.76-.69-1.47s.66-1.21,1.18-1.11Z" style="fill:#bababa;"></path><path d="M134.28,233.95c.43,.31,.43,1.03,0,1.62s-1.11,.82-1.54,.51c-.43-.31-.43-1.03,0-1.62,.42-.59,1.11-.82,1.54-.51Z" style="fill:#bababa;"></path><path d="M130.96,231.32c.12,.51-.35,1.06-1.05,1.23s-1.38-.1-1.5-.61,.35-1.06,1.05-1.23,1.38,.1,1.5,.61Z" style="fill:#bababa;"></path></g></g><g><ellipse cx="121.01" cy="168.04" rx="21.32" ry="20.79" style="fill:#a3a3a3; stroke:#263238; stroke-linecap:round; stroke-linejoin:round;"></ellipse><path d="M109.59,158.05s-3.18,.18-6.19-1.95c-3.01-2.12-7.43-4.78-7.43-4.78,0,0,9.91,7.43,10.09,10.09,.18,2.65-7.96,4.6-7.96,4.6,0,0,7.61,.35,9.02,2.83,1.42,2.48,1.77,5.31,1.77,5.31,0,0,1.77-3.72,3.72-7.08,1.95-3.36,9.73-6.19,9.73-6.19,0,0-6.72,.35-8.49-3.01-1.77-3.36-4.42-10.62-4.42-10.62,0,0,.71,7.08,.18,10.79Z" style="fill:#92E3A9; stroke:#263238; stroke-linecap:round; stroke-linejoin:round;"></path><path d="M111.01,160.7s-3.72-2.48-6.02-5.84c-2.3-3.36-3.18-7.25-3.36-4.95-.18,2.3,2.3,7.08,4.42,10.09s4.78,4.6,4.95,.71Z" style="fill:#92E3A9; stroke:#263238; stroke-linecap:round; stroke-linejoin:round;"></path></g></g><g id="freepik--Fish--inject-108"><g><path d="M289.87,126.7s-8.89,33.9-9.93,48.07c-1.03,14.18-2.92,38.44,2.26,58.98,5.18,20.54,14.81,34.38,21.76,40.64,6.94,6.26,17.87,5.15,19.17,5.16,1.29,0-18.85-20.53-21.67-31.79-2.82-11.25-13.72-99.91-9.72-115.41,4-15.5-1.29-8.14-1.87-5.66Z" style="fill:#263238; stroke:#263238; stroke-linecap:round; stroke-linejoin:round;"></path><path d="M390.95,187.07s-2.64-20.88-8.74-37.23c-6.09-16.35-15.17-28.79-25.61-44.55-10.45-15.76-22.23-18.23-25.38-12.82-3.15,5.41-1.84,10.96,2.9,21.4,4.74,10.44,14.22,31.32,15.18,34.33,.96,3.01-.3,5.95-.86,11.38-.56,5.43-2.17,7.13-3.91,10.69-1.73,3.56-1.91,6.35-2.5,8.83s-1.32,3.87-2.43,6.61c-1.11,2.74-1.59,4.65-2.99,5.21-1.4,.56-1.46,1.49-3-.33s-11.9-22.4-14.22-30.03-3.66-16.13-3.66-16.13c0,0-1.36-26.41-.1-36.19,1.26-9.78-4.85-16.7-11.8-14.84-6.95,1.86-10.14,5.62-11.42,17.98s-9.57,41.19-9.68,63.55c-.11,22.36,4.55,58.12,9.72,73.12,5.17,15,16.22,25.69,21.48,29.04,5.26,3.35,10.48,3.75,14.63,3.01,4.15-.75,14.68-3.47,20.22-4.77,5.55-1.31,14.79-5.33,20.06-10.1,5.26-4.78,8.08-.36,14.73-18.06,6.65-17.71,7.97-42.08,8.33-48.96,.36-6.88-.95-11.14-.95-11.14Z" style="fill:#fff; stroke:#263238; stroke-linecap:round; stroke-linejoin:round;"></path><g><path d="M336.22,239.22c-.09-.85-.19-1.81-.29-2.91-7.91,1.32-22.74,2.55-36.01-3.25-2.83-1.24-5.41-2.51-7.77-3.79,.82,4.65,2.65,11.2,4.9,17.53,1.39,.06,2.85,.07,4.39,.04,11.92-.22,25.19-4.13,34.77-7.63Z" style="fill:#92E3A9;"></path><path d="M337.34,254.91l.6-3.77s-.27-1.49-.55-3.14c-10.67,4.46-25.73,8.82-35.54,10.19,1.54,2.84,3.51,5.42,5.64,7.72,9.69-1.44,20.25-4.06,28.21-6.62l1.64-4.38Z" style="fill:#92E3A9;"></path><path d="M311.32,173.48c-3.09,1.97-4.65,5.95-4.65,11.83,0,4.96,1.58,8.37,4.04,10.72l1.64-.39-1.11,.87c4.44,3.77,11.32,4.52,17.16,4.69-.03-.52-.04-1.05-.03-1.6,.2-6.68,2.16-5.83,2.16-5.83,0,0-1.01-3.37-1.31-4.25-.3-.88-5.16-9.46-6.13-11.17-.38-.67-1.11-3.12-1.86-5.87-3.07-.66-6.96-.88-9.91,1.01Z" style="fill:#92E3A9;"></path><path d="M337.08,246.11c-.05-.33-.1-.65-.14-.94-.16-1.22-.33-2.45-.52-4.09-9.69,3.51-22.97,7.37-34.94,7.59-1.28,.02-2.53,.01-3.75-.02,1.03,2.75,2.12,5.42,3.24,7.82,10.46-1.27,25.75-5.96,36.11-10.36Z" style="fill:#92E3A9;"></path><path d="M309.75,197.68l-.68,.53c-.09,.07-9.14,7.32-6.24,16.13,1.29,3.93,6.83,8.15,14.46,11.01,6.94,2.61,13.66,3.38,17.5,2.12-.3-2.06-.54-3.55-.54-3.55,0,0,2.54-7.18,1.18-6.26-1.35,.92-3.79-6.14-3.79-6.14,0,0-2.34-3.54-3.07-8.5-6.15-.17-13.89-.98-18.83-5.35Z" style="fill:#92E3A9;"></path><path d="M321.05,276.12c.47,.22,.92,.42,1.32,.58,5.27,2.06,10.81,.75,11.86-1.05,.9-1.55-.34-2.82-.79-4.65-1.8,.76-3.66,1.51-5.5,2.25-2.1,.85-4.57,1.85-6.89,2.87Z" style="fill:#92E3A9;"></path><path d="M292.27,201.6c7.66-2.98,15.93-4.97,16.03-4.99l.3-.07c-2.31-2.58-3.76-6.19-3.76-11.22,0-6.55,1.85-11.05,5.5-13.38,3.18-2.02,7.11-2.01,10.36-1.44-.59-2.21-1.14-4.39-1.49-5.81-4.45,.43-10.19,2.94-15.96,10.9-4.33,5.98-8.57,12.09-12.31,17.6,.93,2.67,1.34,5.3,1.33,8.43Z" style="fill:#92E3A9;"></path><path d="M305.37,199.26c-3.26,.9-8.4,2.42-13.16,4.33-.05,.89-.12,1.81-.22,2.79-.72,6.93-.09,12.94-.29,18.32-.02,.63,.02,1.41,.12,2.29,2.64,1.48,5.57,2.96,8.84,4.38,12.93,5.65,27.44,4.39,35.08,3.1-.19-1.65-.44-3.49-.68-5.17-5.06,1.51-12.8-.14-18.41-2.25-3.99-1.5-7.41-3.34-10.05-5.34-2.81-2.14-4.73-4.48-5.5-6.81-2.23-6.79,1.49-12.54,4.27-15.66Z" style="fill:#92E3A9;"></path><path d="M301.77,174.5c5.99-8.28,12.12-11,17-11.54l-1.92-5.01c-3.46,1.12-7.63,2.84-12.25,5.46-4.58,2.61-11.16,8.6-17.74,15.27,.16,2.09,.72,7.19,2.7,11.22,.2,.41,.39,.81,.56,1.21,3.58-5.25,7.57-10.99,11.64-16.62Z" style="fill:#92E3A9;"></path><path d="M292.09,141.85c7.65-9.35,14.33-19.78,18.43-26.6,.36-3.85,.65-7.14,.65-7.14,0,0,.06-.21,.16-.56-4.36,3.58-10.55,8.84-16.73,14.68-.09,1.44-.29,4.34-.57,7.97-.4,5.23-.87,5.84-1.62,9.82-.09,.48-.2,1.1-.32,1.83Z" style="fill:#92E3A9;"></path><path d="M327.26,271.55c2.02-.82,4.06-1.64,6.02-2.48,.06-1.87,.56-3.16,.56-3.16l1.21-4.5c-7.41,2.33-16.91,4.72-25.94,6.15,3.34,3.25,6.93,5.81,9.87,7.48,2.33-1.06,5.12-2.2,8.29-3.48Z" style="fill:#92E3A9;"></path><path d="M291.53,145.37c-.18,1.16-.37,2.42-.58,3.75,6.51-5.65,13.22-11.18,18.65-15.03-.28-2.86-.46-5.97-.22-7.83,.19-1.43,.46-4.05,.74-6.86-4.56,7.35-11.2,17.3-18.59,25.96Z" style="fill:#92E3A9;"></path><path d="M289.1,160.54c6.52-4.57,13.66-8.9,19.69-12.56,1.15-.7,2.25-1.37,3.31-2.01l-1.68-5.25s-.3-1.98-.6-4.55c-5.63,4.08-12.63,9.93-19.31,15.78-.45,2.84-.92,5.82-1.41,8.59Z" style="fill:#92E3A9;"></path><path d="M316.15,156.25l-2.85-6.5-.63-1.98c-.94,.57-1.92,1.17-2.93,1.78-6.48,3.93-14.25,8.65-21.11,13.57-.17,.91-.34,1.79-.5,2.6-1.05,5.18-1.31,8.61-1.35,10.43,6.26-6.24,12.44-11.77,16.92-14.32,4.7-2.68,8.92-4.42,12.45-5.58Z" style="fill:#92E3A9;"></path><path d="M311.94,104.7c.28-1.81,.37-3.85-.39-4.76-1.54-1.82-7.37-3.99-11.24,.23-3.86,4.22-1.33,5.17-2.35,9.92-.63,2.96-1.75,6.55-2.51,8.85,6.38-5.9,12.55-11.05,16.49-14.24Z" style="fill:#92E3A9;"></path></g><g><path d="M334.92,109.08c1.35,3.13,3.02,6.97,4.78,10.97,7.02,1.63,16.08,3.74,24.38,5.69-1.72-3.05-3.42-6.34-5.07-10.01-.9-.28-1.83-.58-2.8-.88-8.86-2.77-15.87-4.5-21.29-5.78Z" style="fill:#92E3A9;"></path><path d="M332.66,95.84c-.77,1.53-1.1,3.45-.65,5.71,5.64,.13,13.09,.9,20.73,2.14-2.62-4.19-4.99-6.92-7.1-8.71-4.97-.17-9.49,.29-12.98,.87Z" style="fill:#92E3A9;"></path><path d="M375.84,144.33c-3.27-5.1-6.9-10.25-10.52-16.42-8.23-1.94-17.41-4.08-24.71-5.78,1.86,4.24,3.75,8.55,5.39,12.29,.46,.15,.93,.3,1.41,.45,7.97,2.54,18.56,5.91,28.44,9.46Z" style="fill:#92E3A9;"></path><path d="M332.56,103.46c.07,.2,.15,.41,.24,.62,.34,.81,.75,1.79,1.23,2.91,5.61,1.31,13.08,3.1,22.73,6.12,.42,.13,.82,.26,1.23,.39-1.39-2.97-2.72-5.54-4-7.75-8.06-1.32-15.79-2.07-21.43-2.28Z" style="fill:#92E3A9;"></path><path d="M367.32,228.61c13.79-9.98,13.43-13.69,13-17.98-.15-1.54-.31-3.12,.06-5.07,.09-.49,.12-.8,.12-1-1.28,.56-4.73,3.79-8.07,6.93-4.23,3.97-9.49,8.9-15.87,14.08-5.99,4.85-12.05,8.12-17.44,10.33-.04,2.77,.08,5.4,.53,7.42,.07,.33,.15,.67,.22,1.01,.86-.43,1.78-.9,2.8-1.4,6.58-3.27,15.58-7.76,24.66-14.33Z" style="fill:#92E3A9;"></path><path d="M362.21,218.4c-3.01,2.14-6.02,3.61-7.9,4.44-2.94,1.29-8.91,4.42-14.96,7.69-.07,1.09-.13,2.21-.17,3.33,5.08-2.15,10.73-5.24,16.24-9.71,2.43-1.96,4.69-3.9,6.8-5.76Z" style="fill:#92E3A9;"></path><path d="M389.33,210.56c.05-1.29,.12-2.44,.2-3.54-3.74-9.7-8.69-19.53-14.59-24.16-4.73-3.71-7.09-6.92-8.82-9.26-3.23-4.37-3.9-5.29-15.77-.28l-.7,.3c-.92,3.14-1.67,6.48-2.19,9.07,3.77-3.04,8.69-6.16,13.07-6.29,2.28-.07,4.23,.66,5.8,2.17,3.2,3.1,4.59,6.02,4.15,8.7-.56,3.34-3.79,5.57-6.66,7.05,1.73,.08,3.31,.43,4.6,1.15,1.66,.92,2.73,2.37,3.19,4.3,1.1,4.68-.11,9.17-3.6,13.38,1.12-1.04,2.18-2.04,3.18-2.98,6.64-6.23,8.81-8.16,10.33-7.33,.06,.03,.12,.07,.18,.12,.92,.7,.62,2.27,.49,2.96-.32,1.68-.18,3.14-.04,4.54,.46,4.65,.89,9.04-13.75,19.64-9.2,6.66-18.28,11.18-24.92,14.48-1.05,.52-2.15,1.07-3.23,1.62,.31,1.53,.59,3.02,.8,4.2,9.61-1.58,27.44-7.03,43.19-14.91,2.55-8.96,4.86-18.75,5.08-24.92Z" style="fill:#92E3A9;"></path><path d="M344.55,261.93c8.09-.03,19.38-.08,30.91-3.43,.94-.93,1.64-1.75,1.94-2.36,.84-1.72,3.54-9.37,6.16-18.28-14.4,6.99-31.85,12.76-42.18,14.32,.08,.44,.12,.7,.12,.7,0,0-.23-.44-.46-.65-.11,.02-.23,.03-.34,.05-.12,.37-.05,1.51,.56,4.33,.57,2.67,.93,4.32,1.15,5.34,.69,0,1.4,0,2.14-.01Z" style="fill:#92E3A9;"></path><path d="M350.4,196.49c.36-.08,.73-.16,1.13-.24,.7-.15,1.44-.31,2.2-.48,.98-.27,1.99-.52,3.01-.73,1.77-.48,3.52-1.04,5.04-1.76,4.26-2,6.52-4.07,6.89-6.32,.34-2.05-.88-4.43-3.62-7.08-1.21-1.18-2.67-1.72-4.46-1.66-4.54,.14-9.97,4.1-13.68,7.33-.18,1-.28,1.61-.28,1.61,0,0-1.43,4.44-1.34,6.46,.09,2.02,2.93,2.56,5,2.83,.04,0,.07,.03,.1,.04Z" style="fill:#92E3A9;"></path><path d="M338.96,216.46s1.05,5.03,.65,10.25c-.04,.53-.08,1.09-.12,1.66,5.72-3.08,11.23-5.96,14.08-7.21,18.29-8.01,16.75-18.89,16.25-20.99-.34-1.43-1.09-2.45-2.29-3.12-2.5-1.39-6.58-1.05-10.52-.2-.91,.24-1.81,.46-2.69,.65-1.43,.39-2.78,.8-3.96,1.18-.93,1.88-2.99,4.35-4.27,4.98-2.08,1.02-2.54,.34-4.18,4.63-1.64,4.28-2.96,8.16-2.96,8.16Z" style="fill:#92E3A9;"></path><path d="M363.87,147.8c5.5,1.85,12.55,5.89,19.49,10.45-.42-1-.86-2.01-1.34-3.03-1.38-2.93-2.93-5.67-4.6-8.38-10.38-3.79-21.91-7.47-30.45-10.19,1.44,3.29,2.58,5.94,3.21,7.44,4.42,.92,9.16,2.18,13.69,3.7Z" style="fill:#92E3A9;"></path><path d="M344.56,263.76c-.49,0-.96,0-1.43,0,.67,.34,1.94,1.17,1.27,2.38-.89,1.6-2.29,2.16-1.78,3.2,.51,1.04-1.56,.77,2.3,3.38s15.71-2.68,15.71-2.68c0,0,6.82-4.69,11.8-8.84-10.47,2.49-20.48,2.53-27.87,2.56Z" style="fill:#92E3A9;"></path><path d="M367.59,172.52c1.66,2.26,3.94,5.35,8.47,8.9,4.84,3.79,9.49,11.06,13.87,21.64,.04-.27,.07-.54,.11-.79-.02-.46-.04-.94-.05-1.45-.3-8.55-.82-22.85-16.39-33.63-7.75-5.37-15.62-6.1-22.08-5.19-.2,3.55-.6,6.92-1.2,9.36,12.09-5.04,13.51-3.97,17.28,1.16Z" style="fill:#92E3A9;"></path><path d="M342.97,93.08c-.93-.52-1.79-.87-2.58-1.11-1.9-.57-4.33,.08-6.12,1.75,2.55-.35,5.5-.61,8.7-.64Z" style="fill:#92E3A9;"></path><path d="M350.86,146.09c.69,2.96,.94,8.56,.73,14.06,6.77-.89,14.95-.05,23.04,5.55,12.55,8.68,15.77,19.49,16.73,28.06,.18-2,.12-4.04-.42-6.69-1.38-6.77-2.54-15.65-6.38-25.79-7.55-5.09-15.41-9.77-21.28-11.74-4.43-1.49-8.64-2.62-12.42-3.45Z" style="fill:#92E3A9;"></path></g></g></g><g id="freepik--Avocado--inject-108"><g><path d="M227.92,113.18s-10.36,2.59-13.47,21.77c-3.11,19.17,2.07,33.17,13.21,40.94,11.14,7.77,46.38,24.1,53.38,25.65,7,1.55,15.55,1.55,18.92-3.11,3.37-4.66,.52-12.7,.52-12.7,0,0,3.37-3.89,.52-18.4-2.85-14.51-14.77-39.13-23.32-47.16-8.55-8.03-32.91-17.88-49.75-7Z" style="fill:#92E3A9; stroke:#263238; stroke-linecap:round; stroke-linejoin:round;"></path><path d="M229.34,115.18s-9.87,2.47-12.84,20.73c-2.96,18.27,1.97,31.6,12.59,39,10.61,7.41,44.19,22.96,50.85,24.44,6.66,1.48,14.81,1.48,18.02-2.96,3.21-4.44,.49-12.1,.49-12.1,0,0,3.21-3.7,.49-17.53-2.72-13.82-14.07-37.27-22.22-44.93-8.15-7.65-31.35-17.03-47.39-6.66Z" style="fill:#92E3A9;"></path><path d="M229.34,115.18s-9.87,2.47-12.84,20.73c-2.96,18.27,1.97,31.6,12.59,39,10.61,7.41,44.19,22.96,50.85,24.44,6.66,1.48,14.81,1.48,18.02-2.96,3.21-4.44,.49-12.1,.49-12.1,0,0,3.21-3.7,.49-17.53-2.72-13.82-14.07-37.27-22.22-44.93-8.15-7.65-31.35-17.03-47.39-6.66Z" style="fill:#fff; opacity:.69;"></path><path d="M249.17,130.28s-7.77,1.3-13.21,10.62c-5.44,9.33-4.66,21.51,5.44,27.98,10.11,6.48,23.06,5.18,29.54,1.04s8.03-17.1,4.4-25.13c-3.63-8.03-12.7-15.81-26.17-14.51Z" style="fill:#a3a3a3; stroke:#263238; stroke-linecap:round; stroke-linejoin:round;"></path></g></g><g id="freepik--Broccoli--inject-108"><g><g><path d="M175.68,44.82s.26,13.73-7.77,25.13c-8.03,11.4-28.5,21.51-30.06,24.62-1.55,3.11,11.4,29.54,15.29,27.47s12.18-9.85,17.62-10.36c5.44-.52,25.39,3.37,32.39,5.96s7,3.89,7,3.89c0,0,5.44,3.89,11.4,4.66s9.59-.52,10.88-1.55c1.3-1.04-1.04,2.85,7.51-1.81s10.36-15.55,10.11-16.84,3.63-4.66,5.18-13.47c1.55-8.81,1.04-14.25,.52-17.36-.52-3.11,2.07-16.06-1.3-23.32-3.37-7.26-9.33-12.96-9.33-12.96,0,0-7.26-9.59-12.44-11.92s-19.17-7-20.21-7.26c-1.04-.26-1.04-2.85-9.07-2.85s-13.99,.52-13.99,.52l-6.48,3.11-2.33,2.07s-7.51,1.3-9.59,8.29-3.11,7.26-2.33,9.07,7,4.92,7,4.92Z" style="fill:#92E3A9; stroke:#263238; stroke-miterlimit:10;"></path><path d="M190.05,68.77c3.89-5.03,8.18-9.62,10.77-10.99,4.4-2.33,7.26,.52,7.26,.52,0,0,2.59,8.29-.26,10.11s-18.66,8.81-18.4,10.36c.26,1.55,25.13-7,27.21-6.22s3.11,9.85,.26,11.14c-1.55,.71-7.8,2.64-13.76,5.35" style="fill:none; stroke:#263238; stroke-linecap:round; stroke-linejoin:round;"></path><path d="M199.23,90.97c-3.4,1.85-6.28,3.95-7.49,6.2-3.63,6.74,16.84-3.63,28.5-4.92,11.66-1.3,11.92-15.81,0-28.76-11.92-12.96-22.54-8.29-22.54-8.29,0,0-5.7,2.33-9.33,10.36-1.15,2.54-2.47,5.54-3.63,8.23" style="fill:none; stroke:#263238; stroke-linecap:round; stroke-linejoin:round;"></path><path d="M210.14,121.52s5.44,3.89,11.4,4.66c5.96,.78,9.59-.52,10.88-1.55,1.3-1.04-1.04,2.85,7.51-1.81,8.55-4.66,10.36-15.55,10.11-16.84-.26-1.3,3.63-4.66,5.18-13.47,1.55-8.81,1.04-14.25,.52-17.36-.52-3.11,2.07-16.06-1.3-23.32-3.37-7.26-9.33-12.96-9.33-12.96,0,0-7.26-9.59-12.44-11.92-5.18-2.33-19.17-7-20.21-7.26-1.04-.26-1.04-2.85-9.07-2.85s-13.99,.52-13.99,.52l-6.48,3.11-2.33,2.07s-7.51,1.3-9.59,8.29-3.11,7.26-2.33,9.07c.78,1.81,7,4.92,7,4.92,0,0-.78-.78,2.59,.26,3.37,1.04,5.44,.26,5.44,.26l3.11,5.7,5.18,4.15s.52,1.3,3.37,1.55l2.85,.26,.26,4.92,2.59,3.63,2.85,1.55,1.81,2.07s-.52,4.92-.52,6.48,1.55,8.03,1.55,8.03l1.04,2.59,.78,2.07s-.78,2.85-1.55,4.92-1.55,5.44-1.55,5.44l1.3,4.92,.52,2.07s.52,.78-.78,2.33l-1.3,1.55s-1.3,3.37-1.55,4.4c-.26,1.04-5.18-2.59-.52,3.63,7,2.59,7,3.89,7,3.89Z" style="fill:#92E3A9;"></path><path d="M210.14,121.52s5.44,3.89,11.4,4.66c5.96,.78,9.59-.52,10.88-1.55,1.3-1.04-1.04,2.85,7.51-1.81,8.55-4.66,10.36-15.55,10.11-16.84-.26-1.3,3.63-4.66,5.18-13.47,1.55-8.81,1.04-14.25,.52-17.36-.52-3.11,2.07-16.06-1.3-23.32-3.37-7.26-9.33-12.96-9.33-12.96,0,0-7.26-9.59-12.44-11.92-5.18-2.33-19.17-7-20.21-7.26-1.04-.26-1.04-2.85-9.07-2.85s-13.99,.52-13.99,.52l-6.48,3.11-2.33,2.07s-7.51,1.3-9.59,8.29-3.11,7.26-2.33,9.07c.78,1.81,7,4.92,7,4.92,0,0-.78-.78,2.59,.26,3.37,1.04,5.44,.26,5.44,.26l3.11,5.7,5.18,4.15s.52,1.3,3.37,1.55l2.85,.26,.26,4.92,2.59,3.63,2.85,1.55,1.81,2.07s-.52,4.92-.52,6.48,1.55,8.03,1.55,8.03l1.04,2.59,.78,2.07s-.78,2.85-1.55,4.92-1.55,5.44-1.55,5.44l1.3,4.92,.52,2.07s.52,.78-.78,2.33l-1.3,1.55s-1.3,3.37-1.55,4.4c-.26,1.04-5.18-2.59-.52,3.63,7,2.59,7,3.89,7,3.89Z" style="opacity:.21;"></path><path d="M210.14,121.52s5.44,3.89,11.4,4.66c5.96,.78,9.59-.52,10.88-1.55,1.3-1.04-1.04,2.85,7.51-1.81,8.55-4.66,10.36-15.55,10.11-16.84-.26-1.3,3.63-4.66,5.18-13.47,1.55-8.81,1.04-14.25,.52-17.36-.52-3.11,2.07-16.06-1.3-23.32-3.37-7.26-9.33-12.96-9.33-12.96,0,0-7.26-9.59-12.44-11.92-5.18-2.33-19.17-7-20.21-7.26-1.04-.26-1.04-2.85-9.07-2.85s-13.99,.52-13.99,.52l-6.48,3.11-2.33,2.07s-7.51,1.3-9.59,8.29-3.11,7.26-2.33,9.07c.78,1.81,7,4.92,7,4.92,0,0-.78-.78,2.59,.26,3.37,1.04,5.44,.26,5.44,.26l3.11,5.7,5.18,4.15s.52,1.3,3.37,1.55l2.85,.26,.26,4.92,2.59,3.63,2.85,1.55,1.81,2.07s-.52,4.92-.52,6.48,1.55,8.03,1.55,8.03l1.04,2.59,.78,2.07s-.78,2.85-1.55,4.92-1.55,5.44-1.55,5.44l1.3,4.92,.52,2.07s.52,.78-.78,2.33l-1.3,1.55s-1.3,3.37-1.55,4.4c-.26,1.04-5.18-2.59-.52,3.63,7,2.59,7,3.89,7,3.89Z" style="fill:none; stroke:#263238; stroke-linecap:round; stroke-linejoin:round;"></path></g><path d="M186.52,31.12c0,1.37-1.23,2.48-2.75,2.48s-2.75-1.11-2.75-2.48,1.23-2.48,2.75-2.48,2.75,1.11,2.75,2.48Z" style="fill:none; stroke:#263238; stroke-miterlimit:10;"></path><ellipse cx="195.74" cy="38.14" rx="1.51" ry="1.24" style="fill:none; stroke:#263238; stroke-miterlimit:10;"></ellipse><path d="M205.5,25.62c0,1.22-1.29,2.2-2.89,2.2s-2.89-.99-2.89-2.2,1.29-2.2,2.89-2.2,2.89,.99,2.89,2.2Z" style="fill:none; stroke:#263238; stroke-miterlimit:10;"></path><path d="M210.45,39.92c0,.76-.62,1.38-1.38,1.38s-1.38-.62-1.38-1.38,.62-1.38,1.38-1.38,1.38,.62,1.38,1.38Z" style="fill:none; stroke:#263238; stroke-miterlimit:10;"></path><path d="M207.98,48.04c0,1.75-1.48,3.16-3.3,3.16s-3.3-1.42-3.3-3.16,1.48-3.16,3.3-3.16,3.3,1.42,3.3,3.16Z" style="fill:none; stroke:#263238; stroke-miterlimit:10;"></path><path d="M224.76,58.35c0,1.22-.86,2.2-1.93,2.2s-1.93-.99-1.93-2.2,.86-2.2,1.93-2.2,1.93,.99,1.93,2.2Z" style="fill:none; stroke:#263238; stroke-miterlimit:10;"></path><circle cx="222.69" cy="38.14" r="1.79" style="fill:none; stroke:#263238; stroke-miterlimit:10;"></circle><circle cx="220.49" cy="65.92" r="2.06" style="fill:none; stroke:#263238; stroke-miterlimit:10;"></circle><circle cx="236.72" cy="60.14" r="2.06" style="fill:none; stroke:#263238; stroke-miterlimit:10;"></circle><path d="M226.13,84.9c0,2.05-1.66,3.71-3.71,3.71s-3.71-1.66-3.71-3.71,1.66-3.71,3.71-3.71,3.71,1.66,3.71,3.71Z" style="fill:none; stroke:#263238; stroke-miterlimit:10;"></path><circle cx="236.17" cy="85.45" r="1.79" style="fill:none; stroke:#263238; stroke-miterlimit:10;"></circle><circle cx="240.03" cy="76.37" r="1.51" style="fill:none; stroke:#263238; stroke-miterlimit:10;"></circle><circle cx="234.8" cy="49.41" r="2.34" style="fill:none; stroke:#263238; stroke-miterlimit:10;"></circle><circle cx="210.45" cy="65.23" r="3.58" style="fill:none; stroke:#263238; stroke-miterlimit:10;"></circle><path d="M219.53,77.06c0,.91-.74,1.65-1.65,1.65s-1.65-.74-1.65-1.65,.74-1.65,1.65-1.65,1.65,.74,1.65,1.65Z" style="fill:none; stroke:#263238; stroke-miterlimit:10;"></path><circle cx="212.52" cy="90.13" r="1.24" style="fill:none; stroke:#263238; stroke-miterlimit:10;"></circle><path d="M219.53,97.14c0,.61-.49,1.1-1.1,1.1s-1.1-.49-1.1-1.1,.49-1.1,1.1-1.1,1.1,.49,1.1,1.1Z" style="fill:none; stroke:#263238; stroke-miterlimit:10;"></path><path d="M218.43,106.36c0,1.75-1.42,3.16-3.16,3.16s-3.16-1.42-3.16-3.16,1.42-3.16,3.16-3.16,3.16,1.42,3.16,3.16Z" style="fill:none; stroke:#263238; stroke-miterlimit:10;"></path><path d="M230.81,107.6c0,1.37-1.11,2.48-2.48,2.48s-2.48-1.11-2.48-2.48,1.11-2.48,2.48-2.48,2.48,1.11,2.48,2.48Z" style="fill:none; stroke:#263238; stroke-miterlimit:10;"></path><path d="M217.61,114.2c0,.91-.74,1.65-1.65,1.65s-1.65-.74-1.65-1.65,.74-1.65,1.65-1.65,1.65,.74,1.65,1.65Z" style="fill:none; stroke:#263238; stroke-miterlimit:10;"></path><path d="M230.26,114.47c0,.3-.25,.55-.55,.55s-.55-.25-.55-.55,.25-.55,.55-.55,.55,.25,.55,.55Z" style="fill:none; stroke:#263238; stroke-miterlimit:10;"></path><path d="M190.1,42.4c0,1.67-1.35,3.03-3.03,3.03s-3.03-1.35-3.03-3.03,1.35-3.03,3.03-3.03,3.03,1.35,3.03,3.03Z" style="fill:none; stroke:#263238; stroke-miterlimit:10;"></path><circle cx="196.56" cy="49.41" r="1.51" style="fill:none; stroke:#263238; stroke-miterlimit:10;"></circle><circle cx="217.74" cy="29.61" r="1.79" style="fill:none; stroke:#263238; stroke-miterlimit:10;"></circle><path d="M192.02,23.28c0,.84-.68,1.51-1.51,1.51s-1.51-.68-1.51-1.51,.68-1.51,1.51-1.51,1.51,.68,1.51,1.51Z" style="fill:none; stroke:#263238; stroke-miterlimit:10;"></path><circle cx="247.73" cy="63.17" r=".96" style="fill:none; stroke:#263238; stroke-miterlimit:10;"></circle><path d="M241.81,44.19c0,.68-.55,1.24-1.24,1.24s-1.24-.55-1.24-1.24,.55-1.24,1.24-1.24,1.24,.55,1.24,1.24Z" style="fill:none; stroke:#263238; stroke-miterlimit:10;"></path><path d="M234.11,33.87c0,.76-.62,1.38-1.38,1.38s-1.38-.62-1.38-1.38,.62-1.38,1.38-1.38,1.38,.62,1.38,1.38Z" style="fill:none; stroke:#263238; stroke-miterlimit:10;"></path><path d="M241.26,92.47c0,1.22-.99,2.2-2.2,2.2s-2.2-.99-2.2-2.2,.99-2.2,2.2-2.2,2.2,.99,2.2,2.2Z" style="fill:none; stroke:#263238; stroke-miterlimit:10;"></path><circle cx="240.85" cy="104.16" r="1.51" style="fill:none; stroke:#263238; stroke-miterlimit:10;"></circle><path d="M233.01,99.62c0,.61-.49,1.1-1.1,1.1s-1.1-.49-1.1-1.1,.49-1.1,1.1-1.1,1.1,.49,1.1,1.1Z" style="fill:none; stroke:#263238; stroke-miterlimit:10;"></path><circle cx="237" cy="114.06" r="1.79" style="fill:none; stroke:#263238; stroke-miterlimit:10;"></circle><path d="M168.85,94.72c4.08-1.92,6.66-1.71,6.66-1.71" style="fill:none; stroke:#263238; stroke-linecap:round; stroke-linejoin:round;"></path><path d="M145.53,108.97s5.78,.55,14.58-7.98c2.03-1.97,3.94-3.45,5.69-4.57" style="fill:none; stroke:#263238; stroke-linecap:round; stroke-linejoin:round;"></path></g></g><g id="freepik--Corn--inject-108"><g><g><path d="M360.88,299.11s-3.69-4.08-5.87-3.72c-2.18,.36-3.97,8.36-3.6,11.99,.36,3.63,6.4,3.59,8.94,2.14s5.62-6.05,.53-10.41Z" style="fill:#fff; stroke:#263238; stroke-linecap:round; stroke-linejoin:round;"></path><path d="M354.23,301.32c-.52,2.61-.91,5.76-.02,6.72,1.6,1.73,4.67,1.6,6.94-.53" style="fill:#fff; stroke:#263238; stroke-linecap:round; stroke-linejoin:round;"></path><path d="M355.14,297.5s-.23,.8-.51,1.98" style="fill:#fff; stroke:#263238; stroke-linecap:round; stroke-linejoin:round;"></path></g><g><path d="M324.76,322.79s-3.69-4.08-5.87-3.72c-2.18,.36-3.97,8.36-3.6,11.99,.36,3.63,6.4,3.59,8.94,2.14,2.54-1.45,5.62-6.05,.53-10.41Z" style="fill:#fff; stroke:#263238; stroke-linecap:round; stroke-linejoin:round;"></path><path d="M318.1,325.01c-.52,2.61-.91,5.76-.02,6.72,1.6,1.74,4.67,1.6,6.94-.53" style="fill:#fff; stroke:#263238; stroke-linecap:round; stroke-linejoin:round;"></path><path d="M319.02,321.19s-.23,.8-.51,1.98" style="fill:#fff; stroke:#263238; stroke-linecap:round; stroke-linejoin:round;"></path></g><g><path d="M330.88,283.92s-2.44-.21-4.62,.15c-2.18,.36-3.97,8.36-3.6,11.99s6.4,3.59,8.94,2.14c2.54-1.45,4.36-9.92-.72-14.28Z" style="fill:#fff; stroke:#263238; stroke-linecap:round; stroke-linejoin:round;"></path><path d="M325.48,290.01c-.52,2.61-.91,5.76-.02,6.72,1.6,1.73,4.67,1.6,6.94-.53" style="fill:#fff; stroke:#263238; stroke-linecap:round; stroke-linejoin:round;"></path><path d="M326.39,286.19s-.23,.8-.51,1.98" style="fill:#fff; stroke:#263238; stroke-linecap:round; stroke-linejoin:round;"></path></g><g><path d="M260.49,306.8s-2.44-.21-4.62,.15c-2.18,.36-3.97,8.36-3.6,11.99,.36,3.63,6.4,3.59,8.94,2.14s4.36-9.92-.72-14.28Z" style="fill:#fff; stroke:#263238; stroke-linecap:round; stroke-linejoin:round;"></path><path d="M255.09,312.89c-.52,2.61-.91,5.76-.02,6.72,1.6,1.74,4.67,1.6,6.94-.53" style="fill:#fff; stroke:#263238; stroke-linecap:round; stroke-linejoin:round;"></path><path d="M256.01,309.07s-.23,.8-.51,1.98" style="fill:#fff; stroke:#263238; stroke-linecap:round; stroke-linejoin:round;"></path></g><g><path d="M338.19,297.73s-.82,5.44,.84,6.9c1.66,1.46,8.99-2.22,11.57-4.8,2.58-2.58-1.27-7.23-4-8.28-2.73-1.05-8.24-.52-8.4,6.17Z" style="fill:#fff; stroke:#263238; stroke-linecap:round; stroke-linejoin:round;"></path><path d="M344.12,301.48c2.35-1.25,5.03-2.94,5.22-4.24,.33-2.34-1.71-4.63-4.8-5.04" style="fill:#fff; stroke:#263238; stroke-linecap:round; stroke-linejoin:round;"></path><path d="M340.58,303.19s.77-.33,1.85-.85" style="fill:#fff; stroke:#263238; stroke-linecap:round; stroke-linejoin:round;"></path></g><g><path d="M302.06,354.89s-.82,5.44,.84,6.9,8.99-2.22,11.57-4.8c2.58-2.58-1.27-7.23-4-8.28-2.73-1.05-8.24-.52-8.4,6.17Z" style="fill:#fff; stroke:#263238; stroke-linecap:round; stroke-linejoin:round;"></path><path d="M307.99,358.64c2.35-1.25,5.03-2.94,5.22-4.24,.33-2.34-1.71-4.63-4.8-5.04" style="fill:#fff; stroke:#263238; stroke-linecap:round; stroke-linejoin:round;"></path><path d="M304.45,360.35s.77-.33,1.85-.85" style="fill:#fff; stroke:#263238; stroke-linecap:round; stroke-linejoin:round;"></path></g><g><path d="M371.88,272.87s-3.69-4.08-5.87-3.72-3.97,8.36-3.6,11.99c.36,3.63,6.4,3.59,8.94,2.14,2.54-1.45,5.62-6.05,.53-10.41Z" style="fill:#fff; stroke:#263238; stroke-linecap:round; stroke-linejoin:round;"></path><path d="M365.23,275.09c-.52,2.61-.91,5.76-.02,6.72,1.6,1.73,4.67,1.6,6.94-.53" style="fill:#fff; stroke:#263238; stroke-linecap:round; stroke-linejoin:round;"></path><path d="M366.15,271.27s-.23,.8-.51,1.98" style="fill:#fff; stroke:#263238; stroke-linecap:round; stroke-linejoin:round;"></path></g><g><path d="M301.72,379.46s-3.69-4.08-5.87-3.72c-2.18,.36-3.97,8.36-3.6,11.99,.36,3.63,6.4,3.59,8.94,2.14s5.62-6.05,.53-10.41Z" style="fill:#fff; stroke:#263238; stroke-linecap:round; stroke-linejoin:round;"></path><path d="M295.06,381.68c-.52,2.61-.91,5.76-.02,6.72,1.6,1.74,4.67,1.6,6.94-.53" style="fill:#fff; stroke:#263238; stroke-linecap:round; stroke-linejoin:round;"></path><path d="M295.98,377.86s-.23,.8-.51,1.98" style="fill:#fff; stroke:#263238; stroke-linecap:round; stroke-linejoin:round;"></path></g><g><path d="M349.19,271.49s-.82,5.44,.83,6.9c1.66,1.46,8.99-2.22,11.57-4.8,2.58-2.58-1.27-7.23-4-8.28-2.73-1.05-8.24-.52-8.4,6.17Z" style="fill:#fff; stroke:#263238; stroke-linecap:round; stroke-linejoin:round;"></path><path d="M355.12,275.24c2.35-1.25,5.03-2.94,5.22-4.24,.33-2.34-1.71-4.63-4.8-5.04" style="fill:#fff; stroke:#263238; stroke-linecap:round; stroke-linejoin:round;"></path><path d="M351.58,276.95s.77-.33,1.85-.85" style="fill:#fff; stroke:#263238; stroke-linecap:round; stroke-linejoin:round;"></path></g><g><path d="M334.44,324.98s5.49,.36,6.8-1.42c1.31-1.78-2.98-8.76-5.76-11.12s-7.09,1.88-7.9,4.69c-.81,2.81,.18,8.26,6.86,7.84Z" style="fill:#fff; stroke:#263238; stroke-linecap:round; stroke-linejoin:round;"></path><path d="M337.67,318.75c-1.44-2.23-3.36-4.77-4.67-4.84-2.36-.13-4.47,2.1-4.61,5.22" style="fill:#fff; stroke:#263238; stroke-linecap:round; stroke-linejoin:round;"></path><path d="M339.68,322.13s-.39-.74-1.01-1.77" style="fill:#fff; stroke:#263238; stroke-linecap:round; stroke-linejoin:round;"></path></g><g><path d="M333.99,346.09s5.49,.36,6.8-1.42c1.31-1.78-2.98-8.76-5.76-11.12s-7.09,1.88-7.9,4.69c-.81,2.81,.18,8.26,6.86,7.84Z" style="fill:#fff; stroke:#263238; stroke-linecap:round; stroke-linejoin:round;"></path><path d="M337.23,339.86c-1.44-2.23-3.36-4.77-4.67-4.84-2.36-.13-4.47,2.1-4.61,5.22" style="fill:#fff; stroke:#263238; stroke-linecap:round; stroke-linejoin:round;"></path><path d="M339.23,343.24s-.39-.74-1.01-1.77" style="fill:#fff; stroke:#263238; stroke-linecap:round; stroke-linejoin:round;"></path></g><g><path d="M313.37,296.38s5.49,.36,6.8-1.42c1.31-1.78-2.98-8.76-5.76-11.12-2.79-2.35-7.09,1.88-7.9,4.69-.81,2.81,.18,8.26,6.87,7.84Z" style="fill:#fff; stroke:#263238; stroke-linecap:round; stroke-linejoin:round;"></path><path d="M316.6,290.15c-1.44-2.23-3.36-4.77-4.67-4.84-2.36-.13-4.47,2.1-4.61,5.22" style="fill:#fff; stroke:#263238; stroke-linecap:round; stroke-linejoin:round;"></path><path d="M318.6,293.53s-.39-.74-1.01-1.77" style="fill:#fff; stroke:#263238; stroke-linecap:round; stroke-linejoin:round;"></path></g><g><path d="M345.47,318.29s-.24,2.76,.98,4.6c1.22,1.84,9.25,.21,12.42-1.6,3.17-1.81,.67-7.31-1.7-9.04s-9.8-.38-11.71,6.04Z" style="fill:#fff; stroke:#263238; stroke-linecap:round; stroke-linejoin:round;"></path><path d="M352.19,321.18c2.59-.59,5.63-1.52,6.15-2.72,.93-2.17-.44-4.92-3.32-6.12" style="fill:#fff; stroke:#263238; stroke-linecap:round; stroke-linejoin:round;"></path><path d="M348.33,321.9s.83-.12,2.01-.34" style="fill:#fff; stroke:#263238; stroke-linecap:round; stroke-linejoin:round;"></path></g><g><path d="M321.95,365.58s-.24,2.76,.98,4.6c1.22,1.84,9.25,.21,12.42-1.6s.67-7.31-1.7-9.04c-2.36-1.73-9.8-.38-11.71,6.04Z" style="fill:#fff; stroke:#263238; stroke-linecap:round; stroke-linejoin:round;"></path><path d="M328.68,368.47c2.59-.59,5.63-1.52,6.15-2.72,.93-2.17-.44-4.92-3.32-6.12" style="fill:#fff; stroke:#263238; stroke-linecap:round; stroke-linejoin:round;"></path><path d="M324.81,369.2s.83-.12,2.01-.34" style="fill:#fff; stroke:#263238; stroke-linecap:round; stroke-linejoin:round;"></path></g><g><path d="M295.54,236.23s-3.69-4.08-5.87-3.72-3.97,8.36-3.6,11.99c.36,3.63,6.4,3.59,8.94,2.14s5.62-6.05,.53-10.41Z" style="fill:#fff; stroke:#263238; stroke-linecap:round; stroke-linejoin:round;"></path><path d="M288.89,238.45c-.52,2.61-.91,5.76-.02,6.72,1.6,1.73,4.67,1.6,6.94-.53" style="fill:#fff; stroke:#263238; stroke-linecap:round; stroke-linejoin:round;"></path><path d="M289.8,234.62s-.23,.8-.51,1.98" style="fill:#fff; stroke:#263238; stroke-linecap:round; stroke-linejoin:round;"></path></g><g><path d="M272.85,234.85s-.82,5.44,.84,6.9c1.66,1.46,8.99-2.22,11.57-4.8,2.58-2.58-1.27-7.23-4-8.28-2.73-1.05-8.24-.52-8.4,6.17Z" style="fill:#fff; stroke:#263238; stroke-linecap:round; stroke-linejoin:round;"></path><path d="M278.78,238.6c2.35-1.25,5.03-2.94,5.22-4.24,.33-2.34-1.71-4.63-4.8-5.04" style="fill:#fff; stroke:#263238; stroke-linecap:round; stroke-linejoin:round;"></path><path d="M275.24,240.31s.77-.33,1.85-.85" style="fill:#fff; stroke:#263238; stroke-linecap:round; stroke-linejoin:round;"></path></g><g><path d="M280.01,254.42s-3.14,1.05,1.1,5.59c1.51,1.61,9.25,.21,12.42-1.6,3.17-1.81,.67-7.31-1.7-9.04s-7.84-.4-11.82,5.05Z" style="fill:#fff; stroke:#263238; stroke-linecap:round; stroke-linejoin:round;"></path><path d="M286.85,258.3c2.59-.59,5.63-1.52,6.15-2.72,.93-2.17-.44-4.92-3.32-6.12" style="fill:#fff; stroke:#263238; stroke-linecap:round; stroke-linejoin:round;"></path><path d="M282.99,259.02s.83-.12,2.01-.34" style="fill:#fff; stroke:#263238; stroke-linecap:round; stroke-linejoin:round;"></path></g><g><path d="M292.75,326.51s-2.22,5.04-1,6.88c1.22,1.84,9.25,.21,12.42-1.6,3.17-1.81,.67-7.31-1.7-9.04-2.36-1.73-7.82-2.66-9.72,3.76Z" style="fill:#fff; stroke:#263238; stroke-linecap:round; stroke-linejoin:round;"></path><path d="M297.49,331.69c2.59-.59,5.63-1.52,6.15-2.72,.93-2.17-.44-4.92-3.32-6.12" style="fill:#fff; stroke:#263238; stroke-linecap:round; stroke-linejoin:round;"></path><path d="M293.62,332.41s.83-.12,2.01-.34" style="fill:#fff; stroke:#263238; stroke-linecap:round; stroke-linejoin:round;"></path></g><g><path d="M309.3,308.9s-2.6,3,1.5,5.3c1.93,1.08,8.99-2.22,11.57-4.8,2.58-2.58-1.27-7.23-4-8.28-2.73-1.05-8.91,1.08-9.07,7.77Z" style="fill:#fff; stroke:#263238; stroke-linecap:round; stroke-linejoin:round;"></path><path d="M315.89,311.05c2.35-1.25,5.03-2.94,5.22-4.24,.06-.4,.09-.77,.09-1.11" style="fill:#fff; stroke:#263238; stroke-linecap:round; stroke-linejoin:round;"></path><path d="M312.36,312.76s.77-.33,1.85-.85" style="fill:#fff; stroke:#263238; stroke-linecap:round; stroke-linejoin:round;"></path></g><g><path d="M261.79,281.23s.42,2.3,3.29,2.81c2.18,.38,8.99-2.22,11.57-4.8s-1.66-8.48-4.39-9.53c-2.73-1.05-10.31,4.83-10.47,11.52Z" style="fill:#fff; stroke:#263238; stroke-linecap:round; stroke-linejoin:round;"></path><path d="M273,272.4c-.69-.39-1.5-.67-2.41-.79" style="fill:#fff; stroke:#263238; stroke-linecap:round; stroke-linejoin:round;"></path><path d="M270.17,280.88c2.35-1.25,5.03-2.94,5.22-4.24,.16-1.13-.23-2.25-1.03-3.15" style="fill:#fff; stroke:#263238; stroke-linecap:round; stroke-linejoin:round;"></path><path d="M266.64,282.59s.77-.33,1.85-.85" style="fill:#fff; stroke:#263238; stroke-linecap:round; stroke-linejoin:round;"></path></g></g></g></svg>
