<svg xmlns="http://www.w3.org/2000/svg" viewBox="0 0 500 500"><g id="freepik--background-simple--inject-224"><path d="M480.55,186.69c-1.75-21.7-1.94-40.92-10.76-61.47-7.08-16.5-15-33.2-25.75-47.65-33-44.11-84.59-63.77-138.34-65.78-88.12-3.28-173.9,53-203.36,136.58C97.58,161.86,89.75,173.24,80.9,184c-.93-.56-1.45-2.06-1.45-4.65,0-23.06-26.07,2.73-30.15,9C-3.55,269.59,7.83,403.24,95.9,455.21c36.16,21.34,76.24,31.59,117.84,34.92,37.83,3,78.81-2.68,107.35-29.88,24.72-23.55,33.15-58.52,53.81-84.4a54.74,54.74,0,0,0-5.76,23.8c.07,13.85,35,8.29,70.73-52.84C473.39,289.46,484.54,236.31,480.55,186.69Z" style="fill:#92E3A9"></path><path d="M480.55,186.69c-1.75-21.7-1.94-40.92-10.76-61.47-7.08-16.5-15-33.2-25.75-47.65-33-44.11-84.59-63.77-138.34-65.78-88.12-3.28-173.9,53-203.36,136.58C97.58,161.86,89.75,173.24,80.9,184c-.93-.56-1.45-2.06-1.45-4.65,0-23.06-26.07,2.73-30.15,9C-3.55,269.59,7.83,403.24,95.9,455.21c36.16,21.34,76.24,31.59,117.84,34.92,37.83,3,78.81-2.68,107.35-29.88,24.72-23.55,33.15-58.52,53.81-84.4a54.74,54.74,0,0,0-5.76,23.8c.07,13.85,35,8.29,70.73-52.84C473.39,289.46,484.54,236.31,480.55,186.69Z" style="fill:#fff;opacity:0.7000000000000001"></path></g><g id="freepik--Character--inject-224"><path d="M246.92,194.25c-54.15,0-100.1,30.67-116.36,73.21a1.94,1.94,0,0,0,.64,2.22l45.53,35a2,2,0,0,0,1.17.4h7.3a1.93,1.93,0,0,0,1.92-2q0-.81,0-1.62c0-28.88,26.78-52.3,59.83-52.3s59.83,23.42,59.83,52.3S280,353.74,246.92,353.74a68.51,68.51,0,0,1-15.1-1.69,5.93,5.93,0,0,0-1.39-.16h0a6.43,6.43,0,0,0-6,8.69l6.65,17.62v40.38h73.09v-16.7a8.9,8.9,0,0,1,4.8-7.94c36.27-18.63,60.62-53.07,60.62-92.49C369.57,242.24,314.66,194.25,246.92,194.25Z" style="fill:#263238;stroke:#263238;stroke-miterlimit:10"></path><rect x="231.06" y="426.49" width="73.09" height="52.98" style="fill:#263238;stroke:#263238;stroke-miterlimit:10"></rect><path d="M359.57,301.45c0-59.21-54.91-107.2-122.65-107.2-54.1,0-100,30.6-116.31,73.08a2,2,0,0,0,.78,2.32l52.74,33.46a1.93,1.93,0,0,0,3-1.63v0c0-28.88,26.79-52.3,59.83-52.3s59.83,23.42,59.83,52.3S270,353.74,236.92,353.74a68.1,68.1,0,0,1-8.51-.53,6.42,6.42,0,0,0-7.27,6.36V378.2h-.08v40.38h73.09v-16.7a8.92,8.92,0,0,1,4.8-7.94C335.22,375.31,359.57,340.87,359.57,301.45Z" style="fill:#92E3A9;stroke:#263238;stroke-miterlimit:10"></path><rect x="221.06" y="426.49" width="73.09" height="52.98" style="fill:#92E3A9;stroke:#263238;stroke-miterlimit:10"></rect><path d="M230.5,90.8S223.28,94,220,95.49a34.9,34.9,0,0,1-5.78,2.16l5.51,2.89,15.52-2.44Z" style="fill:#fff;stroke:#263238;stroke-miterlimit:10"></path><path d="M207.49,94.13a11.89,11.89,0,0,1-2.44-3.33c-.72-1.72-2.17-.91-2.17.36a6.29,6.29,0,0,0,1.18,3.43c.36.18,4.15.81,4.15.81Z" style="fill:none;stroke:#263238;stroke-miterlimit:10"></path><path d="M233.38,101.79l1.53,8.66s-3,17.19-3.58,27.08-1,16.33-.43,18.91,8,27.65,8,27.65-1.29,1.58-1.29,2-.14,2-.14,2a37.29,37.29,0,0,1-3.59,3.15c-1.57,1.15-4.87,2.15-4.29,3.3s4.44,0,8.74,0,7.3.57,8.88-.57.14-5.45.14-5.45.15-3,.29-3.87-1.86-5.3-1.72-6.59S242.5,151,242.5,151l7.16-26.5s11.75,29.8,13.19,31.23,20.77,26.08,20.77,26.08-1.29,1.43-.86,2.15a15.63,15.63,0,0,0,1.15,1.57s-1.44,3-2.3,4.3-3.29,2-2.86,2.87,4.87,1,6,.71,5.73-5.3,7-6.3,3.72-2.87,3.72-4.16-2.43-2.86-2.58-3.29-.43-2.29-1.29-2.87a26.34,26.34,0,0,0-2.58-1.43c-.57-.29-14.9-25.22-14.9-25.22s-6.44-38.39-8.16-42.83-11.49-17.21-11.49-17.21Z" style="fill:#263238;stroke:#263238;stroke-miterlimit:10"></path><path d="M217.78,78s1.89,8.67,4.28,10.94,7.17,2.89,7.17,2.89l4.15,9.94s15.09-4.66,21.13-11.7c0,0-7-11.19-12.2-18.36S239.29,63.3,232,59s-13.21,1.64-13.21,1.64S213.26,60.91,217.78,78Z" style="fill:#92E3A9;stroke:#263238;stroke-miterlimit:10"></path><path d="M208.87,36.27s-1.47-3-11-1.48A14.3,14.3,0,0,0,185.39,47c-.38,3,0,2.86-.92,3.61s-5,.26-4.28,4.66,5.92,1.88,6.67,3.39a4.37,4.37,0,0,0,4,2.64c2.13.13,4.15-2.39,4.4-3.39s2.39-1.89,6.16.38,8.8,6.28,14.09,1.88S213.9,40.16,208.87,36.27Z" style="fill:#263238;stroke:#263238;stroke-miterlimit:10"></path><path d="M189.11,55a24.86,24.86,0,0,0,1.59,4c.79,1.36,3.73,2.61,3.85,4.64s-.57,3.4,0,3.74,3.28-.45,3.28-.45,6,4,7.47,3.39,4.3-4.53,4.3-4.53L216,70.34,217.78,78l2.27-3.65s-4.28-5.16-2.77-9.43l1.51-4.28s-9.64-1.33-10.89-2.91-3.51-5.55-5.54-6.12-2.83,2.27-2.61,2.95-3.39.56-5.66-.34l-2.26-.91C191.26,53.11,189.11,54,189.11,55Z" style="fill:#fff;stroke:#263238;stroke-miterlimit:10"></path><path d="M193.41,59.67s-.11-2,1.59-2.26" style="fill:none;stroke:#263238;stroke-miterlimit:10"></path><path d="M196.52,60.36c.56.46.78,1.1.5,1.44s-1,.24-1.5-.21-.79-1.11-.51-1.44S196,59.9,196.52,60.36Z" style="fill:#263238"></path><path d="M200.77,67s.68-.45.12-2.26" style="fill:none;stroke:#263238;stroke-miterlimit:10"></path><path d="M205.53,54.35s1.58,1.7,1,2.6a3.93,3.93,0,0,1-1.14,1.25s1.48,1.47,1.59,2.38" style="fill:#fff;stroke:#263238;stroke-miterlimit:10"></path><path d="M200.75,49.86s5.58,3.64,8.53,8.19,11.35,4.31,14.32,1.81,3.52-4.92,5.81-4.35,7.79,2.45,11.37-.18.9-7.86,4.54-6.91a9.52,9.52,0,0,0,10.5-4c2.46-3.82,4.35-10.34-2.54-18.86C248,19,240.09,20.72,237.72,21.05s-1.59-2.27-9.33-2.27c-8,0-11.77,6.81-12.29,8.71s1.64,3.19-4.55,1.07-9.21.23-9.1,3.41-6.88,4.27-8.19,4.78" style="fill:#263238;stroke:#263238;stroke-miterlimit:10"></path><path d="M272.15,115.39a3.69,3.69,0,0,1-.87-.1L193.59,95.24a2.54,2.54,0,1,1,1.21-4.94L273,108.22a3.64,3.64,0,0,1-.86,7.17Z" style="fill:#8f8f8f;stroke:#263238;stroke-miterlimit:10"></path><path d="M239.79,101.91l-2.39,1.76a11.11,11.11,0,0,1-2,2.52c-.88.63-1.38,1-.5,1.38s3-.5,3-.5-.76,3.27-.13,3.52,2,.38,2.39-.12a2.63,2.63,0,0,1,1-.76s.37.5,2.64-.12,2.39-4.53,2.64-6.29,10.31-23.9,10.94-26.79,0-4.66-.88-5.16-26-8.3-29-8.55-6.29,4-4.53,8.17,8.8,5.54,10.69,5.79,13,1.63,13,1.63-2.26,11.45-2.76,15.6A11.68,11.68,0,0,1,239.79,101.91Z" style="fill:#fff;stroke:#263238;stroke-miterlimit:10"></path><path d="M203.61,96a20.52,20.52,0,0,0-.27,3.7c.18.45,1.62,1.26,2-.09s.45-3.61-.18-4S204.15,95.13,203.61,96Z" style="fill:#fff;stroke:#263238;stroke-miterlimit:10"></path><path d="M206,97.41a21.25,21.25,0,0,0,.48,3.68c.27.4,1.84.91,1.92-.49s-.28-3.63-1-3.85S206.31,96.42,206,97.41Z" style="fill:#fff;stroke:#263238;stroke-miterlimit:10"></path><path d="M208.3,97.77a22.28,22.28,0,0,0,.48,3.68c.27.4,1.85.91,1.93-.49s-.29-3.63-1-3.85S208.65,96.78,208.3,97.77Z" style="fill:#fff;stroke:#263238;stroke-miterlimit:10"></path><path d="M210.88,98.26a18.08,18.08,0,0,0,.41,3.13c.23.34,1.57.77,1.64-.42s-.25-3.08-.83-3.28S211.18,97.41,210.88,98.26Z" style="fill:#fff;stroke:#263238;stroke-miterlimit:10"></path><path d="M196.39,96.25l.22-4.3-3-4.44c-2-5.45-14.65-10.08-23.68-12.3s-19.69-.72-24.39,1.66-5.77,3.82-5.77,3.82l-.29,5.71c-1.28,6.47,10.4,14.24,26.1,17.35s29.46.38,30.74-6.1A5,5,0,0,0,196.39,96.25ZM182.81,97c-9.2,1.37-17.61.36-24.93-2.84a67.72,67.72,0,0,1-13.08-8c2-4.51,12.74-6.21,25-3.78,11.62,2.3,20.59,7.52,21.58,12.24A27.77,27.77,0,0,1,182.81,97Z" style="fill:#8f8f8f;stroke:#263238;stroke-miterlimit:10"></path><path d="M170.51,74.6c-15.69-3.11-29.46-.38-30.74,6.09s10.4,14.25,26.1,17.35,29.46.38,30.74-6.09S186.21,77.71,170.51,74.6Zm21.22,15.89c-1,5.08-12.32,7.12-25.27,4.56s-22.63-8.76-21.62-13.84,12.32-7.12,25.27-4.56S192.73,85.41,191.73,90.49Z" style="fill:#fff;stroke:#263238;stroke-miterlimit:10"></path></g><g id="freepik--Floor--inject-224"><line x1="387.43" y1="479.46" x2="489.81" y2="479.46" style="fill:none;stroke:#263238;stroke-miterlimit:10"></line><line x1="16.29" y1="479.46" x2="379.2" y2="479.46" style="fill:none;stroke:#263238;stroke-miterlimit:10"></line></g></svg>
